<svg version="1" xmlns="http://www.w3.org/2000/svg" width="533.333" height="533.333" viewBox="0 0 400.000000 400.000000"><path d="M150 29.1c-8.6.7-20.8 3.3-26 5.5-15.8 6.8-24.6 12.4-34.2 21.6-21.4 20.6-32 47.5-30.5 77.2C61.7 179.8 96 218.2 142 226c5.2.9 21.4 1.4 52 1.5 24.5.1 46.3.5 48.5 1 5.7 1.1 14.3 5.7 19.2 10.2 16.8 15.5 17.4 41.9 1.2 58.3-5.8 5.9-15 10.7-22.5 11.8-2.7.4-41 .7-85.1.7-44.2 0-80.4.2-80.4.5-.1.3-.2 14.1-.3 30.7-.1 20.1.2 30.4.9 30.6.5.2 38.6.2 84.5.1 59-.1 85.5-.5 90.5-1.3 8.6-1.5 22.5-6.1 30.2-10 28.2-14.4 49.5-43.4 54.8-74.6 1.1-6.3 1.4-24.7.5-29.6-.5-2.4-1.1-6-1.4-7.9-.9-6.1-4.7-17.2-8.3-24.5-14.4-29.2-40.4-49.3-72.8-56.1-6.7-1.4-14.4-1.7-55-1.9-38.3-.1-45.8-.4-50.5-1.8-17.4-5.1-28.2-20.9-26.7-39 .9-11.4 7.9-22.8 17.1-28.2 10.3-6.1 5.6-5.8 95.1-5.9l82-.1.3-31 .2-31h-79.2c-43.6 0-82.7.3-86.8.6z"/></svg>