<?xml version="1.0" encoding="UTF-8" standalone="no"?>
<!DOCTYPE svg PUBLIC "-//W3C//DTD SVG 1.1//EN" "http://www.w3.org/Graphics/SVG/1.1/DTD/svg11.dtd">
<svg width="100%" height="100%" viewBox="0 0 534 534" version="1.1" xmlns="http://www.w3.org/2000/svg" xmlns:xlink="http://www.w3.org/1999/xlink" xml:space="preserve" xmlns:serif="http://www.serif.com/" style="fill-rule:evenodd;clip-rule:evenodd;stroke-linejoin:round;stroke-miterlimit:2;">
    <g transform="matrix(0.673532,0,0,0.673532,87.0582,87.0582)">
        <path d="M151.649,148.334C149.973,151.814 148.514,155.287 147.271,158.75L73.181,158.75C73.181,158.75 73.181,374.583 73.181,374.583L221.818,374.583C219.803,377.856 218.212,381.327 217.052,385L67.972,385C65.096,385 62.764,382.668 62.764,379.791L62.764,153.542C62.764,150.665 65.096,148.334 67.972,148.334L151.649,148.334ZM385.182,148.334L465.361,148.334C468.238,148.334 470.569,150.665 470.569,153.542L470.569,379.791C470.569,382.668 468.238,385 465.361,385L311.099,385C309.955,381.325 308.388,377.853 306.404,374.583L460.153,374.583L460.153,158.75L388.705,158.75C387.734,155.223 386.559,151.75 385.182,148.334Z" style="fill:rgb(127,127,127);"/>
    </g>
    <g transform="matrix(1.15717,0,0,1.19134,-57.9467,-49.218)">
        <path d="M217.341,222.314C217.341,214.311 219.911,206.203 225.049,197.989C230.188,189.776 237.686,182.973 247.542,177.582C257.398,172.19 268.897,169.494 282.039,169.494C294.254,169.494 305.037,171.748 314.388,176.255C323.739,180.762 330.962,186.89 336.059,194.641C341.156,202.391 343.704,210.815 343.704,219.913C343.704,227.074 342.251,233.35 339.344,238.741C336.438,244.133 332.984,248.787 328.983,252.704C324.981,256.622 317.8,263.214 307.438,272.48C304.574,275.092 302.278,277.387 300.551,279.367C298.824,281.347 297.539,283.158 296.697,284.801C295.855,286.443 295.202,288.086 294.738,289.729C294.275,291.371 293.58,294.257 292.653,298.385C291.053,307.146 286.04,311.526 277.616,311.526C273.236,311.526 269.55,310.094 266.56,307.23C263.569,304.366 262.074,300.111 262.074,294.467C262.074,287.391 263.169,281.262 265.359,276.082C267.549,270.901 270.456,266.352 274.078,262.434C277.7,258.517 282.587,253.863 288.736,248.471C294.128,243.754 298.024,240.194 300.425,237.794C302.826,235.393 304.847,232.718 306.49,229.77C308.133,226.821 308.954,223.62 308.954,220.166C308.954,213.427 306.448,207.74 301.436,203.107C296.423,198.474 289.958,196.157 282.039,196.157C272.772,196.157 265.949,198.495 261.568,203.17C257.188,207.846 253.481,214.732 250.448,223.83C247.584,233.35 242.15,238.109 234.147,238.109C229.43,238.109 225.449,236.446 222.206,233.118C218.963,229.791 217.341,226.189 217.341,222.314ZM279.006,360.808C273.867,360.808 269.382,359.144 265.549,355.816C261.716,352.489 259.799,347.834 259.799,341.853C259.799,336.546 261.652,332.081 265.359,328.459C269.066,324.836 273.615,323.025 279.006,323.025C284.313,323.025 288.778,324.836 292.401,328.459C296.023,332.081 297.834,336.546 297.834,341.853C297.834,347.75 295.939,352.384 292.148,355.753C288.357,359.123 283.977,360.808 279.006,360.808Z" style="fill:rgb(255,101,101);fill-rule:nonzero;"/>
    </g>
</svg>
