<svg xmlns="http://www.w3.org/2000/svg" xml:space="preserve" style="fill-rule:evenodd;clip-rule:evenodd;stroke-linejoin:round;stroke-miterlimit:2" viewBox="0 0 501 88"><path d="M14.246 46.115h12.461v4.004H14.246z" style="fill:#c4cad3;fill-rule:nonzero" transform="matrix(.55312 0 0 .22593 0 -9.837)"/><path d="M26.045 46.115h12.461v4.004H26.045zM119.316 46.115h12.461v4.004h-12.461z" style="fill:#c4cad3;fill-rule:nonzero" transform="matrix(.55312 0 0 .22593 0 -9.837)"/><path d="M131.115 46.115h12.461v4.004h-12.461zM276.922 46.115h12.461v4.004h-12.461z" style="fill:#c4cad3;fill-rule:nonzero" transform="matrix(.55312 0 0 .22593 0 -9.837)"/><path d="M288.72 46.115h13.796v4.004H288.72z" style="fill:#c4cad3;fill-rule:nonzero" transform="matrix(.55312 0 0 .22593 0 -9.837)"/><path d="M301.854 46.115h12.461v4.004h-12.461zM815.406 46.115h12.461v4.004h-12.461z" style="fill:#c4cad3;fill-rule:nonzero" transform="matrix(.55312 0 0 .22593 0 -9.837)"/><path d="M827.205 46.115h12.461v4.004h-12.461zM14.369 66.05l7.432 37.507h-2.025l-6.642-33.34-6.653 33.34H4.467l7.432-37.507zM40.569 61.256l1.491-1.798 9.524 48.076-1.513 1.634zM79.915 109.441h12.461v4.004H79.915z" style="fill:#c4cad3;fill-rule:nonzero" transform="matrix(.55312 0 0 .22593 0 -9.837)"/><path d="M91.714 109.441h12.461v4.004H91.714zM107.751 109.168l-1.513-1.634 9.524-48.076 1.491 1.798zM119.372 61.256l1.491-1.798 9.523 48.076-1.513 1.634zM145.64 61.256l1.49-1.798 9.524 48.076-1.513 1.634zM265.357 109.168l-1.513-1.634 9.523-48.076 1.491 1.798zM276.977 61.256l1.491-1.798 9.524 48.076-1.513 1.634zM290.055 109.441h11.126v4.004h-11.126zM316.379 61.256l1.49-1.798 9.524 48.076-1.513 1.634zM815.529 66.05l7.431 37.507h-2.024l-6.642-33.34-6.653 33.34h-2.014l7.432-37.507zM841.729 61.256l1.491-1.798 9.524 48.076-1.513 1.634zM1.168 124.582l1.491-1.798 9.524 48.076-1.514 1.634zM27.436 124.582l1.491-1.798 9.523 48.076-1.513 1.634zM53.703 124.582l1.491-1.798 9.524 48.076-1.513 1.634zM68.35 172.494l-1.513-1.634 9.524-48.076 1.49 1.798zM79.971 124.582l1.491-1.798 9.523 48.076-1.513 1.634zM106.238 124.582l1.491-1.798 9.524 48.076-1.513 1.634zM132.506 124.582l1.491-1.798 9.523 48.076-1.513 1.634zM158.773 124.582l1.491-1.798 9.524 48.076-1.513 1.634zM237.52 172.767h12.461v4.004H237.52z" style="fill:#c4cad3;fill-rule:nonzero" transform="matrix(.55312 0 0 .22593 0 -9.837)"/><path d="M249.319 172.767h12.461v4.004h-12.461zM263.844 124.582l1.49-1.798 9.524 48.076-1.513 1.634zM278.49 172.494l-1.513-1.634 9.524-48.076 1.491 1.798zM291.624 172.494l-1.513-1.634 9.524-48.076 1.49 1.798zM303.245 124.582l1.491-1.798 9.523 48.076-1.513 1.634zM329.512 124.582l1.491-1.798 9.524 48.076-1.513 1.634zM408.259 172.767h12.461v4.004h-12.461z" style="fill:#c4cad3;fill-rule:nonzero" transform="matrix(.55312 0 0 .22593 0 -9.837)"/><path d="M420.058 172.767h13.796v4.004h-13.796z" style="fill:#c4cad3;fill-rule:nonzero" transform="matrix(.55312 0 0 .22593 0 -9.837)"/><path d="M433.192 172.767h12.461v4.004h-12.461zM500.196 172.767h12.461v4.004h-12.461z" style="fill:#c4cad3;fill-rule:nonzero" transform="matrix(.55312 0 0 .22593 0 -9.837)"/><path d="M511.994 172.767h13.796v4.004h-13.796z" style="fill:#c4cad3;fill-rule:nonzero" transform="matrix(.55312 0 0 .22593 0 -9.837)"/><path d="M525.128 172.767h12.461v4.004h-12.461zM605.266 172.767h12.461v4.004h-12.461z" style="fill:#c4cad3;fill-rule:nonzero" transform="matrix(.55312 0 0 .22593 0 -9.837)"/><path d="M617.065 172.767h13.796v4.004h-13.796z" style="fill:#c4cad3;fill-rule:nonzero" transform="matrix(.55312 0 0 .22593 0 -9.837)"/><path d="M630.198 172.767h12.461v4.004h-12.461zM657.801 172.767h12.461v4.004h-12.461z" style="fill:#c4cad3;fill-rule:nonzero" transform="matrix(.55312 0 0 .22593 0 -9.837)"/><path d="M669.6 172.767h13.796v4.004H669.6z" style="fill:#c4cad3;fill-rule:nonzero" transform="matrix(.55312 0 0 .22593 0 -9.837)"/><path d="M682.733 172.767h12.461v4.004h-12.461zM776.005 172.767h12.461v4.004h-12.461z" style="fill:#c4cad3;fill-rule:nonzero" transform="matrix(.55312 0 0 .22593 0 -9.837)"/><path d="M787.804 172.767h12.461v4.004h-12.461zM802.328 124.582l1.491-1.798 9.523 48.076-1.513 1.634zM828.596 124.582l1.49-1.798 9.524 48.076-1.513 1.634zM854.863 124.582l1.491-1.798 9.523 48.076-1.513 1.634z" style="fill:#c4cad3;fill-rule:nonzero" transform="matrix(.55312 0 0 .22593 0 -9.837)"/><path d="m14.302 187.908 1.491-1.798 9.523 48.076-1.513 1.634zM40.569 187.908l1.491-1.798 9.524 48.076-1.513 1.634zM66.837 187.908l1.491-1.798 9.523 48.076-1.513 1.634zM93.105 187.908l1.49-1.798 9.524 48.076-1.513 1.634zM119.372 187.908l1.491-1.798 9.523 48.076-1.513 1.634zM145.64 187.908l1.49-1.798 9.524 48.076-1.513 1.634zM171.907 187.908l1.491-1.798 9.524 48.076-1.514 1.634zM212.822 235.82l-1.514-1.634 9.524-48.076 1.491 1.798zM229.126 204.142l-.345-14.164h2.337l-.345 14.164zM237.52 236.093h12.461v4.004H237.52z" style="fill:#f3c0a8;fill-rule:nonzero" transform="matrix(.55312 0 0 .22593 0 -9.837)"/><path d="M249.319 236.093h12.461v4.004h-12.461zM271.275 196.325l-4.494-5.067 1.001-3.895 4.105 6.428zM276.977 187.908l1.491-1.798 9.524 48.076-1.513 1.634zM290.111 187.908l1.491-1.798 9.523 48.076-1.513 1.634zM316.379 187.908l1.49-1.798 9.524 48.076-1.513 1.634zM342.646 187.908l1.491-1.798 9.523 48.076-1.513 1.634zM396.694 235.82l-1.513-1.634 9.524-48.076 1.491 1.798zM412.999 204.142l-.345-14.164h2.336l-.345 14.164zM421.393 236.093h12.461v4.004h-12.461z" style="fill:#f3c0a8;fill-rule:nonzero" transform="matrix(.55312 0 0 .22593 0 -9.837)"/><path d="M433.192 236.093h13.796v4.004h-13.796z" style="fill:#f3c0a8;fill-rule:nonzero" transform="matrix(.55312 0 0 .22593 0 -9.837)"/><path d="M446.326 236.093h12.461v4.004h-12.461zM460.85 187.908l1.491-1.798 9.523 48.076-1.513 1.634zM488.631 235.82l-1.513-1.634 9.523-48.076 1.491 1.798zM513.33 236.093h12.461v4.004H513.33z" style="fill:#f3c0a8;fill-rule:nonzero" transform="matrix(.55312 0 0 .22593 0 -9.837)"/><path d="M525.128 236.093h12.461v4.004h-12.461zM547.085 196.325l-4.495-5.067 1.001-3.895 4.105 6.428zM552.786 187.908l1.491-1.798 9.524 48.076-1.513 1.634zM580.567 235.82l-1.513-1.634 9.523-48.076 1.491 1.798zM596.872 204.142l-.345-14.164h2.336l-.345 14.164zM618.4 236.093h12.461v4.004H618.4z" style="fill:#f3c0a8;fill-rule:nonzero" transform="matrix(.55312 0 0 .22593 0 -9.837)"/><path d="M630.198 236.093h12.461v4.004h-12.461zM652.155 196.325l-4.495-5.067 1.001-3.895 4.106 6.428zM670.935 236.093h12.461v4.004h-12.461z" style="fill:#f3c0a8;fill-rule:nonzero" transform="matrix(.55312 0 0 .22593 0 -9.837)"/><path d="M682.733 236.093h12.461v4.004h-12.461zM704.69 196.325l-4.495-5.067 1.001-3.895 4.106 6.428zM710.392 187.908l1.49-1.798 9.524 48.076-1.513 1.634zM751.306 235.82l-1.513-1.634 9.523-48.076 1.491 1.798zM767.611 204.142l-.345-14.164h2.336l-.345 14.164zM776.005 236.093h12.461v4.004h-12.461z" style="fill:#f3c0a8;fill-rule:nonzero" transform="matrix(.55312 0 0 .22593 0 -9.837)"/><path d="M787.804 236.093h12.461v4.004h-12.461zM809.76 196.325l-4.495-5.067 1.001-3.895 4.106 6.428zM815.462 187.908l1.491-1.798 9.523 48.076-1.513 1.634zM841.729 187.908l1.491-1.798 9.524 48.076-1.513 1.634zM867.997 187.908l1.491-1.798 9.523 48.076-1.513 1.634zM27.436 251.234l1.491-1.798 9.523 48.076-1.513 1.634zM53.703 251.234l1.491-1.798 9.524 48.076-1.513 1.634zM79.971 251.234l1.491-1.798 9.523 48.076-1.513 1.634zM93.049 299.419h11.126v4.004H93.049zM107.751 299.146l-1.513-1.634 9.524-48.076 1.491 1.798zM132.506 251.234l1.491-1.798 9.523 48.076-1.513 1.634zM145.584 299.419h11.126v4.004h-11.126zM158.773 251.234l1.491-1.798 9.524 48.076-1.513 1.634zM185.041 251.234l1.491-1.798 9.523 48.076-1.513 1.634zM199.688 299.146l-1.513-1.634 9.523-48.076 1.491 1.798zM211.308 251.234l1.491-1.798 9.524 48.076-1.513 1.634zM250.654 299.419h12.461v4.004h-12.461z" style="fill:#f3c0a8;fill-rule:nonzero" transform="matrix(.55312 0 0 .22593 0 -9.837)"/><path d="M262.453 299.419h12.461v4.004h-12.461zM278.49 299.146l-1.513-1.634 9.524-48.076 1.491 1.798zM303.245 251.234l1.491-1.798 9.523 48.076-1.513 1.634zM316.323 299.419h11.126v4.004h-11.126zM329.512 251.234l1.491-1.798 9.524 48.076-1.513 1.634zM355.78 251.234l1.491-1.798 9.523 48.076-1.513 1.634zM368.858 299.419h11.126v4.004h-11.126zM383.561 299.146l-1.514-1.634 9.524-48.076 1.491 1.798zM395.181 251.234l1.491-1.798 9.524 48.076-1.514 1.634zM421.449 251.234l1.491-1.798 9.523 48.076-1.513 1.634zM434.527 299.419h12.461v4.004h-12.461z" style="fill:#f3c0a8;fill-rule:nonzero" transform="matrix(.55312 0 0 .22593 0 -9.837)"/><path d="M446.326 299.419h12.461v4.004h-12.461zM462.363 299.146l-1.513-1.634 9.524-48.076 1.49 1.798zM475.497 299.146l-1.513-1.634 9.523-48.076 1.491 1.798zM487.118 251.234l1.49-1.798 9.524 48.076-1.513 1.634zM513.385 251.234l1.491-1.798 9.523 48.076-1.513 1.634zM528.366 293.535v-37.507h1.936v33.285h6.986l-.222 4.222zM539.653 251.234l1.491-1.798 9.523 48.076-1.513 1.634zM565.92 251.234l1.491-1.798 9.524 48.076-1.514 1.634zM580.567 299.146l-1.513-1.634 9.523-48.076 1.491 1.798zM592.188 251.234l1.491-1.798 9.523 48.076-1.513 1.634zM618.455 251.234l1.491-1.798 9.524 48.076-1.513 1.634zM633.102 299.146l-1.513-1.634 9.524-48.076 1.49 1.798zM644.723 251.234l1.491-1.798 9.523 48.076-1.513 1.634zM670.99 251.234l1.491-1.798 9.524 48.076-1.513 1.634zM685.637 299.146l-1.513-1.634 9.524-48.076 1.49 1.798zM697.258 251.234l1.491-1.798 9.523 48.076-1.513 1.634zM723.525 251.234l1.491-1.798 9.524 48.076-1.513 1.634zM738.172 299.146l-1.513-1.634 9.524-48.076 1.491 1.798zM749.793 251.234l1.491-1.798 9.523 48.076-1.513 1.634zM789.139 299.419H801.6v4.004h-12.461z" style="fill:#f3c0a8;fill-rule:nonzero" transform="matrix(.55312 0 0 .22593 0 -9.837)"/><path d="M800.937 299.419h12.461v4.004h-12.461zM816.975 299.146l-1.513-1.634 9.523-48.076 1.491 1.798zM828.596 251.234l1.49-1.798 9.524 48.076-1.513 1.634zM854.863 251.234l1.491-1.798 9.523 48.076-1.513 1.634zM867.941 299.419h11.126v4.004h-11.126zM881.131 251.234l1.49-1.798 9.524 48.076-1.513 1.634z" style="fill:#f3c0a8;fill-rule:nonzero" transform="matrix(.55312 0 0 .22593 0 -9.837)"/><path d="m40.569 314.56 1.491-1.798 9.524 48.076-1.513 1.634zM74.269 322.977l-4.495-5.067 1.001-3.895 4.106 6.428zM79.971 314.56l1.491-1.798 9.523 48.076-1.513 1.634zM93.049 362.745h12.461v4.004H93.049z" style="fill:#ea8a5e;fill-rule:nonzero" transform="matrix(.55312 0 0 .22593 0 -9.837)"/><path d="M104.848 362.745h13.796v4.004h-13.796z" style="fill:#ea8a5e;fill-rule:nonzero" transform="matrix(.55312 0 0 .22593 0 -9.837)"/><path d="M117.981 362.745h12.461v4.004h-12.461zM134.709 356.861h-2.136l4.327-15.144-3.793-13.538h2.214l2.714 10.678 2.748-10.678h2.136l-3.782 13.347 4.316 15.335h-2.291l-3.205-12.312zM145.584 362.745h12.461v4.004h-12.461z" style="fill:#ea8a5e;fill-rule:nonzero" transform="matrix(.55312 0 0 .22593 0 -9.837)"/><path d="M157.383 362.745h13.796v4.004h-13.796z" style="fill:#ea8a5e;fill-rule:nonzero" transform="matrix(.55312 0 0 .22593 0 -9.837)"/><path d="M170.516 362.745h12.461v4.004h-12.461zM186.554 362.472l-1.513-1.634 9.523-48.076 1.491 1.798zM198.175 314.56l1.491-1.798 9.523 48.076-1.513 1.634zM224.442 314.56l1.491-1.798 9.524 48.076-1.513 1.634zM237.52 362.745h12.461v4.004H237.52z" style="fill:#ea8a5e;fill-rule:nonzero" transform="matrix(.55312 0 0 .22593 0 -9.837)"/><path d="M249.319 362.745h13.796v4.004h-13.796z" style="fill:#ea8a5e;fill-rule:nonzero" transform="matrix(.55312 0 0 .22593 0 -9.837)"/><path d="M262.453 362.745h13.796v4.004h-13.796z" style="fill:#ea8a5e;fill-rule:nonzero" transform="matrix(.55312 0 0 .22593 0 -9.837)"/><path d="M275.587 362.745h12.461v4.004h-12.461zM290.111 314.56l1.491-1.798 9.523 48.076-1.513 1.634zM304.758 362.472l-1.513-1.634 9.523-48.076 1.491 1.798zM316.379 314.56l1.49-1.798 9.524 48.076-1.513 1.634zM329.457 362.745h12.461v4.004h-12.461z" style="fill:#ea8a5e;fill-rule:nonzero" transform="matrix(.55312 0 0 .22593 0 -9.837)"/><path d="M341.255 362.745h13.796v4.004h-13.796z" style="fill:#ea8a5e;fill-rule:nonzero" transform="matrix(.55312 0 0 .22593 0 -9.837)"/><path d="M354.389 362.745h13.796v4.004h-13.796z" style="fill:#ea8a5e;fill-rule:nonzero" transform="matrix(.55312 0 0 .22593 0 -9.837)"/><path d="M367.523 362.745h12.461v4.004h-12.461zM382.047 314.56l1.491-1.798 9.524 48.076-1.513 1.634zM408.315 314.56l1.491-1.798 9.523 48.076-1.513 1.634zM421.393 362.745h12.461v4.004h-12.461z" style="fill:#ea8a5e;fill-rule:nonzero" transform="matrix(.55312 0 0 .22593 0 -9.837)"/><path d="M433.192 362.745h13.796v4.004h-13.796z" style="fill:#ea8a5e;fill-rule:nonzero" transform="matrix(.55312 0 0 .22593 0 -9.837)"/><path d="M446.326 362.745h13.796v4.004h-13.796z" style="fill:#ea8a5e;fill-rule:nonzero" transform="matrix(.55312 0 0 .22593 0 -9.837)"/><path d="M459.459 362.745h12.461v4.004h-12.461zM473.984 314.56l1.491-1.798 9.523 48.076-1.513 1.634zM500.251 314.56l1.491-1.798 9.524 48.076-1.513 1.634zM513.33 362.745h12.461v4.004H513.33z" style="fill:#ea8a5e;fill-rule:nonzero" transform="matrix(.55312 0 0 .22593 0 -9.837)"/><path d="M525.128 362.745h13.796v4.004h-13.796z" style="fill:#ea8a5e;fill-rule:nonzero" transform="matrix(.55312 0 0 .22593 0 -9.837)"/><path d="M538.262 362.745h13.796v4.004h-13.796z" style="fill:#ea8a5e;fill-rule:nonzero" transform="matrix(.55312 0 0 .22593 0 -9.837)"/><path d="M551.396 362.745h12.461v4.004h-12.461zM567.433 362.472l-1.513-1.634 9.524-48.076 1.491 1.798zM579.054 314.56l1.491-1.798 9.523 48.076-1.513 1.634zM605.322 314.56l1.49-1.798 9.524 48.076-1.513 1.634zM618.4 362.745h11.126v4.004H618.4zM631.589 314.56l1.491-1.798 9.523 48.076-1.513 1.634zM657.857 314.56l1.49-1.798 9.524 48.076-1.513 1.634zM670.935 362.745h11.126v4.004h-11.126zM684.124 314.56l1.491-1.798 9.523 48.076-1.513 1.634zM710.392 314.56l1.49-1.798 9.524 48.076-1.513 1.634zM723.47 362.745h11.126v4.004H723.47zM736.659 314.56l1.491-1.798 9.524 48.076-1.514 1.634zM762.927 314.56l1.491-1.798 9.523 48.076-1.513 1.634zM776.005 362.745h12.461v4.004h-12.461z" style="fill:#ea8a5e;fill-rule:nonzero" transform="matrix(.55312 0 0 .22593 0 -9.837)"/><path d="M787.804 362.745H801.6v4.004h-13.796z" style="fill:#ea8a5e;fill-rule:nonzero" transform="matrix(.55312 0 0 .22593 0 -9.837)"/><path d="M800.937 362.745h13.796v4.004h-13.796z" style="fill:#ea8a5e;fill-rule:nonzero" transform="matrix(.55312 0 0 .22593 0 -9.837)"/><path d="M814.071 362.745h12.461v4.004h-12.461zM828.596 314.56l1.49-1.798 9.524 48.076-1.513 1.634zM841.729 314.56l1.491-1.798 9.524 48.076-1.513 1.634zM856.376 362.472l-1.513-1.634 9.524-48.076 1.49 1.798zM867.997 314.56l1.491-1.798 9.523 48.076-1.513 1.634zM881.075 362.745h11.126v4.004h-11.126zM894.264 314.56l1.491-1.798 9.524 48.076-1.513 1.634zM58.387 394.12l-.345-14.164h2.337l-.345 14.164zM66.837 377.886l1.491-1.798 9.523 48.076-1.513 1.634zM81.484 425.798l-1.513-1.634 9.523-48.076 1.491 1.798zM93.049 426.071h12.461v4.004H93.049z" style="fill:#ea8a5e;fill-rule:nonzero" transform="matrix(.55312 0 0 .22593 0 -9.837)"/><path d="M104.848 426.071h12.461v4.004h-12.461zM120.885 425.798l-1.513-1.634 9.524-48.076 1.49 1.798zM134.019 425.798l-1.513-1.634 9.523-48.076 1.491 1.798zM145.584 426.071h12.461v4.004h-12.461z" style="fill:#ea8a5e;fill-rule:nonzero" transform="matrix(.55312 0 0 .22593 0 -9.837)"/><path d="M157.383 426.071h12.461v4.004h-12.461zM173.42 425.798l-1.513-1.634 9.524-48.076 1.491 1.798zM211.308 377.886l1.491-1.798 9.524 48.076-1.513 1.634zM225.955 425.798l-1.513-1.634 9.524-48.076 1.491 1.798zM237.52 426.071h12.461v4.004H237.52z" style="fill:#ea8a5e;fill-rule:nonzero" transform="matrix(.55312 0 0 .22593 0 -9.837)"/><path d="M249.319 426.071h13.796v4.004h-13.796z" style="fill:#ea8a5e;fill-rule:nonzero" transform="matrix(.55312 0 0 .22593 0 -9.837)"/><path d="M262.453 426.071h13.796v4.004h-13.796z" style="fill:#ea8a5e;fill-rule:nonzero" transform="matrix(.55312 0 0 .22593 0 -9.837)"/><path d="M275.587 426.071h12.461v4.004h-12.461zM291.624 425.798l-1.513-1.634 9.524-48.076 1.49 1.798zM303.245 377.886l1.491-1.798 9.523 48.076-1.513 1.634zM317.892 425.798l-1.513-1.634 9.523-48.076 1.491 1.798zM329.457 426.071h12.461v4.004h-12.461z" style="fill:#ea8a5e;fill-rule:nonzero" transform="matrix(.55312 0 0 .22593 0 -9.837)"/><path d="M341.255 426.071h13.796v4.004h-13.796z" style="fill:#ea8a5e;fill-rule:nonzero" transform="matrix(.55312 0 0 .22593 0 -9.837)"/><path d="M354.389 426.071h13.796v4.004h-13.796z" style="fill:#ea8a5e;fill-rule:nonzero" transform="matrix(.55312 0 0 .22593 0 -9.837)"/><path d="M367.523 426.071h12.461v4.004h-12.461zM383.561 425.798l-1.514-1.634 9.524-48.076 1.491 1.798zM395.181 377.886l1.491-1.798 9.524 48.076-1.514 1.634zM409.828 425.798l-1.513-1.634 9.524-48.076 1.49 1.798zM421.393 426.071h12.461v4.004h-12.461z" style="fill:#ea8a5e;fill-rule:nonzero" transform="matrix(.55312 0 0 .22593 0 -9.837)"/><path d="M433.192 426.071h13.796v4.004h-13.796z" style="fill:#ea8a5e;fill-rule:nonzero" transform="matrix(.55312 0 0 .22593 0 -9.837)"/><path d="M446.326 426.071h13.796v4.004h-13.796z" style="fill:#ea8a5e;fill-rule:nonzero" transform="matrix(.55312 0 0 .22593 0 -9.837)"/><path d="M459.459 426.071h12.461v4.004h-12.461zM475.497 425.798l-1.513-1.634 9.523-48.076 1.491 1.798zM487.118 377.886l1.49-1.798 9.524 48.076-1.513 1.634zM501.764 425.798l-1.513-1.634 9.524-48.076 1.491 1.798zM513.33 426.071h12.461v4.004H513.33z" style="fill:#ea8a5e;fill-rule:nonzero" transform="matrix(.55312 0 0 .22593 0 -9.837)"/><path d="M525.128 426.071h13.796v4.004h-13.796z" style="fill:#ea8a5e;fill-rule:nonzero" transform="matrix(.55312 0 0 .22593 0 -9.837)"/><path d="M538.262 426.071h12.461v4.004h-12.461zM554.3 425.798l-1.514-1.634 9.524-48.076 1.491 1.798zM592.188 377.886l1.491-1.798 9.523 48.076-1.513 1.634zM606.835 425.798l-1.513-1.634 9.523-48.076 1.491 1.798zM618.4 426.071h11.126v4.004H618.4zM633.102 425.798l-1.513-1.634 9.524-48.076 1.49 1.798zM644.723 377.886l1.491-1.798 9.523 48.076-1.513 1.634zM659.37 425.798l-1.513-1.634 9.523-48.076 1.491 1.798zM670.935 426.071h11.126v4.004h-11.126zM685.637 425.798l-1.513-1.634 9.524-48.076 1.49 1.798zM697.258 377.886l1.491-1.798 9.523 48.076-1.513 1.634zM711.905 425.798l-1.513-1.634 9.523-48.076 1.491 1.798zM723.47 426.071h11.126v4.004H723.47zM738.172 425.798l-1.513-1.634 9.524-48.076 1.491 1.798zM749.793 377.886l1.491-1.798 9.523 48.076-1.513 1.634zM764.44 425.798l-1.513-1.634 9.523-48.076 1.491 1.798zM776.005 426.071h12.461v4.004h-12.461z" style="fill:#ea8a5e;fill-rule:nonzero" transform="matrix(.55312 0 0 .22593 0 -9.837)"/><path d="M787.804 426.071H801.6v4.004h-13.796z" style="fill:#ea8a5e;fill-rule:nonzero" transform="matrix(.55312 0 0 .22593 0 -9.837)"/><path d="M800.937 426.071h13.796v4.004h-13.796z" style="fill:#ea8a5e;fill-rule:nonzero" transform="matrix(.55312 0 0 .22593 0 -9.837)"/><path d="M814.071 426.071h12.461v4.004h-12.461zM830.109 425.798l-1.513-1.634 9.523-48.076 1.491 1.798zM854.863 377.886l1.491-1.798 9.523 48.076-1.513 1.634zM869.51 425.798l-1.513-1.634 9.523-48.076 1.491 1.798zM881.075 426.071h11.126v4.004h-11.126zM895.777 425.798l-1.513-1.634 9.524-48.076 1.491 1.798z" style="fill:#ea8a5e;fill-rule:nonzero" transform="matrix(.55312 0 0 .22593 0 -9.837)"/></svg>