<?xml version="1.0" encoding="UTF-8" standalone="no"?>
<!DOCTYPE svg PUBLIC "-//W3C//DTD SVG 1.1//EN" "http://www.w3.org/Graphics/SVG/1.1/DTD/svg11.dtd">
<svg width="100%" height="100%" viewBox="0 0 501 88" version="1.1" xmlns="http://www.w3.org/2000/svg" xmlns:xlink="http://www.w3.org/1999/xlink" xml:space="preserve" xmlns:serif="http://www.serif.com/" style="fill-rule:evenodd;clip-rule:evenodd;stroke-linejoin:round;stroke-miterlimit:2;">
    <g transform="matrix(1,0,0,1,-480,-336)">
        <g>
            <g transform="matrix(0.553125,0,0,0.225926,480,326.163)">
                <rect x="14.246" y="46.115" width="12.461" height="4.004" style="fill:#c4cad3;fill-rule:nonzero;"/>
            </g>
            <g transform="matrix(0.553125,0,0,0.225926,480,326.163)">
                <rect x="26.045" y="46.115" width="12.461" height="4.004" style="fill:#c4cad3;fill-rule:nonzero;"/>
            </g>
            <g transform="matrix(0.553125,0,0,0.225926,480,326.163)">
                <rect x="119.316" y="46.115" width="12.461" height="4.004" style="fill:#c4cad3;fill-rule:nonzero;"/>
            </g>
            <g transform="matrix(0.553125,0,0,0.225926,480,326.163)">
                <rect x="131.115" y="46.115" width="12.461" height="4.004" style="fill:#c4cad3;fill-rule:nonzero;"/>
            </g>
            <g transform="matrix(0.553125,0,0,0.225926,480,326.163)">
                <rect x="276.922" y="46.115" width="12.461" height="4.004" style="fill:#c4cad3;fill-rule:nonzero;"/>
            </g>
            <g transform="matrix(0.553125,0,0,0.225926,480,326.163)">
                <rect x="288.72" y="46.115" width="13.796" height="4.004" style="fill:#c4cad3;fill-rule:nonzero;"/>
            </g>
            <g transform="matrix(0.553125,0,0,0.225926,480,326.163)">
                <rect x="301.854" y="46.115" width="12.461" height="4.004" style="fill:#c4cad3;fill-rule:nonzero;"/>
            </g>
            <g transform="matrix(0.553125,0,0,0.225926,480,326.163)">
                <rect x="815.406" y="46.115" width="12.461" height="4.004" style="fill:#c4cad3;fill-rule:nonzero;"/>
            </g>
            <g transform="matrix(0.553125,0,0,0.225926,480,326.163)">
                <rect x="827.205" y="46.115" width="12.461" height="4.004" style="fill:#c4cad3;fill-rule:nonzero;"/>
            </g>
            <g transform="matrix(0.553125,0,0,0.225926,480,326.163)">
                <path d="M14.369,66.05L21.801,103.557L19.776,103.557L13.134,70.217L6.481,103.557L4.467,103.557L11.899,66.05L14.369,66.05Z" style="fill:#c4cad3;fill-rule:nonzero;"/>
            </g>
            <g transform="matrix(0.553125,0,0,0.225926,480,326.163)">
                <path d="M40.569,61.256L42.06,59.458L51.584,107.534L50.071,109.168L40.569,61.256Z" style="fill:#c4cad3;fill-rule:nonzero;"/>
            </g>
            <g transform="matrix(0.553125,0,0,0.225926,480,326.163)">
                <rect x="79.915" y="109.441" width="12.461" height="4.004" style="fill:#c4cad3;fill-rule:nonzero;"/>
            </g>
            <g transform="matrix(0.553125,0,0,0.225926,480,326.163)">
                <rect x="91.714" y="109.441" width="12.461" height="4.004" style="fill:#c4cad3;fill-rule:nonzero;"/>
            </g>
            <g transform="matrix(0.553125,0,0,0.225926,480,326.163)">
                <path d="M107.751,109.168L106.238,107.534L115.762,59.458L117.253,61.256L107.751,109.168Z" style="fill:#c4cad3;fill-rule:nonzero;"/>
            </g>
            <g transform="matrix(0.553125,0,0,0.225926,480,326.163)">
                <path d="M119.372,61.256L120.863,59.458L130.386,107.534L128.873,109.168L119.372,61.256Z" style="fill:#c4cad3;fill-rule:nonzero;"/>
            </g>
            <g transform="matrix(0.553125,0,0,0.225926,480,326.163)">
                <path d="M145.64,61.256L147.13,59.458L156.654,107.534L155.141,109.168L145.64,61.256Z" style="fill:#c4cad3;fill-rule:nonzero;"/>
            </g>
            <g transform="matrix(0.553125,0,0,0.225926,480,326.163)">
                <path d="M265.357,109.168L263.844,107.534L273.367,59.458L274.858,61.256L265.357,109.168Z" style="fill:#c4cad3;fill-rule:nonzero;"/>
            </g>
            <g transform="matrix(0.553125,0,0,0.225926,480,326.163)">
                <path d="M276.977,61.256L278.468,59.458L287.992,107.534L286.479,109.168L276.977,61.256Z" style="fill:#c4cad3;fill-rule:nonzero;"/>
            </g>
            <g transform="matrix(0.553125,0,0,0.225926,480,326.163)">
                <rect x="290.055" y="109.441" width="11.126" height="4.004" style="fill:#c4cad3;fill-rule:nonzero;"/>
            </g>
            <g transform="matrix(0.553125,0,0,0.225926,480,326.163)">
                <path d="M316.379,61.256L317.869,59.458L327.393,107.534L325.88,109.168L316.379,61.256Z" style="fill:#c4cad3;fill-rule:nonzero;"/>
            </g>
            <g transform="matrix(0.553125,0,0,0.225926,480,326.163)">
                <path d="M815.529,66.05L822.96,103.557L820.936,103.557L814.294,70.217L807.641,103.557L805.627,103.557L813.059,66.05L815.529,66.05Z" style="fill:#c4cad3;fill-rule:nonzero;"/>
            </g>
            <g transform="matrix(0.553125,0,0,0.225926,480,326.163)">
                <path d="M841.729,61.256L843.22,59.458L852.744,107.534L851.231,109.168L841.729,61.256Z" style="fill:#c4cad3;fill-rule:nonzero;"/>
            </g>
            <g transform="matrix(0.553125,0,0,0.225926,480,326.163)">
                <path d="M1.168,124.582L2.659,122.784L12.183,170.86L10.669,172.494L1.168,124.582Z" style="fill:#c4cad3;fill-rule:nonzero;"/>
            </g>
            <g transform="matrix(0.553125,0,0,0.225926,480,326.163)">
                <path d="M27.436,124.582L28.927,122.784L38.45,170.86L36.937,172.494L27.436,124.582Z" style="fill:#c4cad3;fill-rule:nonzero;"/>
            </g>
            <g transform="matrix(0.553125,0,0,0.225926,480,326.163)">
                <path d="M53.703,124.582L55.194,122.784L64.718,170.86L63.205,172.494L53.703,124.582Z" style="fill:#c4cad3;fill-rule:nonzero;"/>
            </g>
            <g transform="matrix(0.553125,0,0,0.225926,480,326.163)">
                <path d="M68.35,172.494L66.837,170.86L76.361,122.784L77.851,124.582L68.35,172.494Z" style="fill:#c4cad3;fill-rule:nonzero;"/>
            </g>
            <g transform="matrix(0.553125,0,0,0.225926,480,326.163)">
                <path d="M79.971,124.582L81.462,122.784L90.985,170.86L89.472,172.494L79.971,124.582Z" style="fill:#c4cad3;fill-rule:nonzero;"/>
            </g>
            <g transform="matrix(0.553125,0,0,0.225926,480,326.163)">
                <path d="M106.238,124.582L107.729,122.784L117.253,170.86L115.74,172.494L106.238,124.582Z" style="fill:#c4cad3;fill-rule:nonzero;"/>
            </g>
            <g transform="matrix(0.553125,0,0,0.225926,480,326.163)">
                <path d="M132.506,124.582L133.997,122.784L143.52,170.86L142.007,172.494L132.506,124.582Z" style="fill:#c4cad3;fill-rule:nonzero;"/>
            </g>
            <g transform="matrix(0.553125,0,0,0.225926,480,326.163)">
                <path d="M158.773,124.582L160.264,122.784L169.788,170.86L168.275,172.494L158.773,124.582Z" style="fill:#c4cad3;fill-rule:nonzero;"/>
            </g>
            <g transform="matrix(0.553125,0,0,0.225926,480,326.163)">
                <rect x="237.52" y="172.767" width="12.461" height="4.004" style="fill:#c4cad3;fill-rule:nonzero;"/>
            </g>
            <g transform="matrix(0.553125,0,0,0.225926,480,326.163)">
                <rect x="249.319" y="172.767" width="12.461" height="4.004" style="fill:#c4cad3;fill-rule:nonzero;"/>
            </g>
            <g transform="matrix(0.553125,0,0,0.225926,480,326.163)">
                <path d="M263.844,124.582L265.334,122.784L274.858,170.86L273.345,172.494L263.844,124.582Z" style="fill:#c4cad3;fill-rule:nonzero;"/>
            </g>
            <g transform="matrix(0.553125,0,0,0.225926,480,326.163)">
                <path d="M278.49,172.494L276.977,170.86L286.501,122.784L287.992,124.582L278.49,172.494Z" style="fill:#c4cad3;fill-rule:nonzero;"/>
            </g>
            <g transform="matrix(0.553125,0,0,0.225926,480,326.163)">
                <path d="M291.624,172.494L290.111,170.86L299.635,122.784L301.125,124.582L291.624,172.494Z" style="fill:#c4cad3;fill-rule:nonzero;"/>
            </g>
            <g transform="matrix(0.553125,0,0,0.225926,480,326.163)">
                <path d="M303.245,124.582L304.736,122.784L314.259,170.86L312.746,172.494L303.245,124.582Z" style="fill:#c4cad3;fill-rule:nonzero;"/>
            </g>
            <g transform="matrix(0.553125,0,0,0.225926,480,326.163)">
                <path d="M329.512,124.582L331.003,122.784L340.527,170.86L339.014,172.494L329.512,124.582Z" style="fill:#c4cad3;fill-rule:nonzero;"/>
            </g>
            <g transform="matrix(0.553125,0,0,0.225926,480,326.163)">
                <rect x="408.259" y="172.767" width="12.461" height="4.004" style="fill:#c4cad3;fill-rule:nonzero;"/>
            </g>
            <g transform="matrix(0.553125,0,0,0.225926,480,326.163)">
                <rect x="420.058" y="172.767" width="13.796" height="4.004" style="fill:#c4cad3;fill-rule:nonzero;"/>
            </g>
            <g transform="matrix(0.553125,0,0,0.225926,480,326.163)">
                <rect x="433.192" y="172.767" width="12.461" height="4.004" style="fill:#c4cad3;fill-rule:nonzero;"/>
            </g>
            <g transform="matrix(0.553125,0,0,0.225926,480,326.163)">
                <rect x="500.196" y="172.767" width="12.461" height="4.004" style="fill:#c4cad3;fill-rule:nonzero;"/>
            </g>
            <g transform="matrix(0.553125,0,0,0.225926,480,326.163)">
                <rect x="511.994" y="172.767" width="13.796" height="4.004" style="fill:#c4cad3;fill-rule:nonzero;"/>
            </g>
            <g transform="matrix(0.553125,0,0,0.225926,480,326.163)">
                <rect x="525.128" y="172.767" width="12.461" height="4.004" style="fill:#c4cad3;fill-rule:nonzero;"/>
            </g>
            <g transform="matrix(0.553125,0,0,0.225926,480,326.163)">
                <rect x="605.266" y="172.767" width="12.461" height="4.004" style="fill:#c4cad3;fill-rule:nonzero;"/>
            </g>
            <g transform="matrix(0.553125,0,0,0.225926,480,326.163)">
                <rect x="617.065" y="172.767" width="13.796" height="4.004" style="fill:#c4cad3;fill-rule:nonzero;"/>
            </g>
            <g transform="matrix(0.553125,0,0,0.225926,480,326.163)">
                <rect x="630.198" y="172.767" width="12.461" height="4.004" style="fill:#c4cad3;fill-rule:nonzero;"/>
            </g>
            <g transform="matrix(0.553125,0,0,0.225926,480,326.163)">
                <rect x="657.801" y="172.767" width="12.461" height="4.004" style="fill:#c4cad3;fill-rule:nonzero;"/>
            </g>
            <g transform="matrix(0.553125,0,0,0.225926,480,326.163)">
                <rect x="669.6" y="172.767" width="13.796" height="4.004" style="fill:#c4cad3;fill-rule:nonzero;"/>
            </g>
            <g transform="matrix(0.553125,0,0,0.225926,480,326.163)">
                <rect x="682.733" y="172.767" width="12.461" height="4.004" style="fill:#c4cad3;fill-rule:nonzero;"/>
            </g>
            <g transform="matrix(0.553125,0,0,0.225926,480,326.163)">
                <rect x="776.005" y="172.767" width="12.461" height="4.004" style="fill:#c4cad3;fill-rule:nonzero;"/>
            </g>
            <g transform="matrix(0.553125,0,0,0.225926,480,326.163)">
                <rect x="787.804" y="172.767" width="12.461" height="4.004" style="fill:#c4cad3;fill-rule:nonzero;"/>
            </g>
            <g transform="matrix(0.553125,0,0,0.225926,480,326.163)">
                <path d="M802.328,124.582L803.819,122.784L813.342,170.86L811.829,172.494L802.328,124.582Z" style="fill:#c4cad3;fill-rule:nonzero;"/>
            </g>
            <g transform="matrix(0.553125,0,0,0.225926,480,326.163)">
                <path d="M828.596,124.582L830.086,122.784L839.61,170.86L838.097,172.494L828.596,124.582Z" style="fill:#c4cad3;fill-rule:nonzero;"/>
            </g>
            <g transform="matrix(0.553125,0,0,0.225926,480,326.163)">
                <path d="M854.863,124.582L856.354,122.784L865.877,170.86L864.364,172.494L854.863,124.582Z" style="fill:#c4cad3;fill-rule:nonzero;"/>
            </g>
            <g transform="matrix(0.553125,0,0,0.225926,480,326.163)">
                <path d="M14.302,187.908L15.793,186.11L25.316,234.186L23.803,235.82L14.302,187.908Z" style="fill:#f3c0a8;fill-rule:nonzero;"/>
            </g>
            <g transform="matrix(0.553125,0,0,0.225926,480,326.163)">
                <path d="M40.569,187.908L42.06,186.11L51.584,234.186L50.071,235.82L40.569,187.908Z" style="fill:#f3c0a8;fill-rule:nonzero;"/>
            </g>
            <g transform="matrix(0.553125,0,0,0.225926,480,326.163)">
                <path d="M66.837,187.908L68.328,186.11L77.851,234.186L76.338,235.82L66.837,187.908Z" style="fill:#f3c0a8;fill-rule:nonzero;"/>
            </g>
            <g transform="matrix(0.553125,0,0,0.225926,480,326.163)">
                <path d="M93.105,187.908L94.595,186.11L104.119,234.186L102.606,235.82L93.105,187.908Z" style="fill:#f3c0a8;fill-rule:nonzero;"/>
            </g>
            <g transform="matrix(0.553125,0,0,0.225926,480,326.163)">
                <path d="M119.372,187.908L120.863,186.11L130.386,234.186L128.873,235.82L119.372,187.908Z" style="fill:#f3c0a8;fill-rule:nonzero;"/>
            </g>
            <g transform="matrix(0.553125,0,0,0.225926,480,326.163)">
                <path d="M145.64,187.908L147.13,186.11L156.654,234.186L155.141,235.82L145.64,187.908Z" style="fill:#f3c0a8;fill-rule:nonzero;"/>
            </g>
            <g transform="matrix(0.553125,0,0,0.225926,480,326.163)">
                <path d="M171.907,187.908L173.398,186.11L182.922,234.186L181.408,235.82L171.907,187.908Z" style="fill:#f3c0a8;fill-rule:nonzero;"/>
            </g>
            <g transform="matrix(0.553125,0,0,0.225926,480,326.163)">
                <path d="M212.822,235.82L211.308,234.186L220.832,186.11L222.323,187.908L212.822,235.82Z" style="fill:#f3c0a8;fill-rule:nonzero;"/>
            </g>
            <g transform="matrix(0.553125,0,0,0.225926,480,326.163)">
                <path d="M229.126,204.142L228.781,189.978L231.118,189.978L230.773,204.142L229.126,204.142Z" style="fill:#f3c0a8;fill-rule:nonzero;"/>
            </g>
            <g transform="matrix(0.553125,0,0,0.225926,480,326.163)">
                <rect x="237.52" y="236.093" width="12.461" height="4.004" style="fill:#f3c0a8;fill-rule:nonzero;"/>
            </g>
            <g transform="matrix(0.553125,0,0,0.225926,480,326.163)">
                <rect x="249.319" y="236.093" width="12.461" height="4.004" style="fill:#f3c0a8;fill-rule:nonzero;"/>
            </g>
            <g transform="matrix(0.553125,0,0,0.225926,480,326.163)">
                <path d="M271.275,196.325L266.781,191.258L267.782,187.363L271.887,193.791L271.275,196.325Z" style="fill:#f3c0a8;fill-rule:nonzero;"/>
            </g>
            <g transform="matrix(0.553125,0,0,0.225926,480,326.163)">
                <path d="M276.977,187.908L278.468,186.11L287.992,234.186L286.479,235.82L276.977,187.908Z" style="fill:#f3c0a8;fill-rule:nonzero;"/>
            </g>
            <g transform="matrix(0.553125,0,0,0.225926,480,326.163)">
                <path d="M290.111,187.908L291.602,186.11L301.125,234.186L299.612,235.82L290.111,187.908Z" style="fill:#f3c0a8;fill-rule:nonzero;"/>
            </g>
            <g transform="matrix(0.553125,0,0,0.225926,480,326.163)">
                <path d="M316.379,187.908L317.869,186.11L327.393,234.186L325.88,235.82L316.379,187.908Z" style="fill:#f3c0a8;fill-rule:nonzero;"/>
            </g>
            <g transform="matrix(0.553125,0,0,0.225926,480,326.163)">
                <path d="M342.646,187.908L344.137,186.11L353.66,234.186L352.147,235.82L342.646,187.908Z" style="fill:#f3c0a8;fill-rule:nonzero;"/>
            </g>
            <g transform="matrix(0.553125,0,0,0.225926,480,326.163)">
                <path d="M396.694,235.82L395.181,234.186L404.705,186.11L406.196,187.908L396.694,235.82Z" style="fill:#f3c0a8;fill-rule:nonzero;"/>
            </g>
            <g transform="matrix(0.553125,0,0,0.225926,480,326.163)">
                <path d="M412.999,204.142L412.654,189.978L414.99,189.978L414.645,204.142L412.999,204.142Z" style="fill:#f3c0a8;fill-rule:nonzero;"/>
            </g>
            <g transform="matrix(0.553125,0,0,0.225926,480,326.163)">
                <rect x="421.393" y="236.093" width="12.461" height="4.004" style="fill:#f3c0a8;fill-rule:nonzero;"/>
            </g>
            <g transform="matrix(0.553125,0,0,0.225926,480,326.163)">
                <rect x="433.192" y="236.093" width="13.796" height="4.004" style="fill:#f3c0a8;fill-rule:nonzero;"/>
            </g>
            <g transform="matrix(0.553125,0,0,0.225926,480,326.163)">
                <rect x="446.326" y="236.093" width="12.461" height="4.004" style="fill:#f3c0a8;fill-rule:nonzero;"/>
            </g>
            <g transform="matrix(0.553125,0,0,0.225926,480,326.163)">
                <path d="M460.85,187.908L462.341,186.11L471.864,234.186L470.351,235.82L460.85,187.908Z" style="fill:#f3c0a8;fill-rule:nonzero;"/>
            </g>
            <g transform="matrix(0.553125,0,0,0.225926,480,326.163)">
                <path d="M488.631,235.82L487.118,234.186L496.641,186.11L498.132,187.908L488.631,235.82Z" style="fill:#f3c0a8;fill-rule:nonzero;"/>
            </g>
            <g transform="matrix(0.553125,0,0,0.225926,480,326.163)">
                <rect x="513.33" y="236.093" width="12.461" height="4.004" style="fill:#f3c0a8;fill-rule:nonzero;"/>
            </g>
            <g transform="matrix(0.553125,0,0,0.225926,480,326.163)">
                <rect x="525.128" y="236.093" width="12.461" height="4.004" style="fill:#f3c0a8;fill-rule:nonzero;"/>
            </g>
            <g transform="matrix(0.553125,0,0,0.225926,480,326.163)">
                <path d="M547.085,196.325L542.59,191.258L543.591,187.363L547.696,193.791L547.085,196.325Z" style="fill:#f3c0a8;fill-rule:nonzero;"/>
            </g>
            <g transform="matrix(0.553125,0,0,0.225926,480,326.163)">
                <path d="M552.786,187.908L554.277,186.11L563.801,234.186L562.288,235.82L552.786,187.908Z" style="fill:#f3c0a8;fill-rule:nonzero;"/>
            </g>
            <g transform="matrix(0.553125,0,0,0.225926,480,326.163)">
                <path d="M580.567,235.82L579.054,234.186L588.577,186.11L590.068,187.908L580.567,235.82Z" style="fill:#f3c0a8;fill-rule:nonzero;"/>
            </g>
            <g transform="matrix(0.553125,0,0,0.225926,480,326.163)">
                <path d="M596.872,204.142L596.527,189.978L598.863,189.978L598.518,204.142L596.872,204.142Z" style="fill:#f3c0a8;fill-rule:nonzero;"/>
            </g>
            <g transform="matrix(0.553125,0,0,0.225926,480,326.163)">
                <rect x="618.4" y="236.093" width="12.461" height="4.004" style="fill:#f3c0a8;fill-rule:nonzero;"/>
            </g>
            <g transform="matrix(0.553125,0,0,0.225926,480,326.163)">
                <rect x="630.198" y="236.093" width="12.461" height="4.004" style="fill:#f3c0a8;fill-rule:nonzero;"/>
            </g>
            <g transform="matrix(0.553125,0,0,0.225926,480,326.163)">
                <path d="M652.155,196.325L647.66,191.258L648.661,187.363L652.767,193.791L652.155,196.325Z" style="fill:#f3c0a8;fill-rule:nonzero;"/>
            </g>
            <g transform="matrix(0.553125,0,0,0.225926,480,326.163)">
                <rect x="670.935" y="236.093" width="12.461" height="4.004" style="fill:#f3c0a8;fill-rule:nonzero;"/>
            </g>
            <g transform="matrix(0.553125,0,0,0.225926,480,326.163)">
                <rect x="682.733" y="236.093" width="12.461" height="4.004" style="fill:#f3c0a8;fill-rule:nonzero;"/>
            </g>
            <g transform="matrix(0.553125,0,0,0.225926,480,326.163)">
                <path d="M704.69,196.325L700.195,191.258L701.196,187.363L705.302,193.791L704.69,196.325Z" style="fill:#f3c0a8;fill-rule:nonzero;"/>
            </g>
            <g transform="matrix(0.553125,0,0,0.225926,480,326.163)">
                <path d="M710.392,187.908L711.882,186.11L721.406,234.186L719.893,235.82L710.392,187.908Z" style="fill:#f3c0a8;fill-rule:nonzero;"/>
            </g>
            <g transform="matrix(0.553125,0,0,0.225926,480,326.163)">
                <path d="M751.306,235.82L749.793,234.186L759.316,186.11L760.807,187.908L751.306,235.82Z" style="fill:#f3c0a8;fill-rule:nonzero;"/>
            </g>
            <g transform="matrix(0.553125,0,0,0.225926,480,326.163)">
                <path d="M767.611,204.142L767.266,189.978L769.602,189.978L769.257,204.142L767.611,204.142Z" style="fill:#f3c0a8;fill-rule:nonzero;"/>
            </g>
            <g transform="matrix(0.553125,0,0,0.225926,480,326.163)">
                <rect x="776.005" y="236.093" width="12.461" height="4.004" style="fill:#f3c0a8;fill-rule:nonzero;"/>
            </g>
            <g transform="matrix(0.553125,0,0,0.225926,480,326.163)">
                <rect x="787.804" y="236.093" width="12.461" height="4.004" style="fill:#f3c0a8;fill-rule:nonzero;"/>
            </g>
            <g transform="matrix(0.553125,0,0,0.225926,480,326.163)">
                <path d="M809.76,196.325L805.265,191.258L806.266,187.363L810.372,193.791L809.76,196.325Z" style="fill:#f3c0a8;fill-rule:nonzero;"/>
            </g>
            <g transform="matrix(0.553125,0,0,0.225926,480,326.163)">
                <path d="M815.462,187.908L816.953,186.11L826.476,234.186L824.963,235.82L815.462,187.908Z" style="fill:#f3c0a8;fill-rule:nonzero;"/>
            </g>
            <g transform="matrix(0.553125,0,0,0.225926,480,326.163)">
                <path d="M841.729,187.908L843.22,186.11L852.744,234.186L851.231,235.82L841.729,187.908Z" style="fill:#f3c0a8;fill-rule:nonzero;"/>
            </g>
            <g transform="matrix(0.553125,0,0,0.225926,480,326.163)">
                <path d="M867.997,187.908L869.488,186.11L879.011,234.186L877.498,235.82L867.997,187.908Z" style="fill:#f3c0a8;fill-rule:nonzero;"/>
            </g>
            <g transform="matrix(0.553125,0,0,0.225926,480,326.163)">
                <path d="M27.436,251.234L28.927,249.436L38.45,297.512L36.937,299.146L27.436,251.234Z" style="fill:#f3c0a8;fill-rule:nonzero;"/>
            </g>
            <g transform="matrix(0.553125,0,0,0.225926,480,326.163)">
                <path d="M53.703,251.234L55.194,249.436L64.718,297.512L63.205,299.146L53.703,251.234Z" style="fill:#f3c0a8;fill-rule:nonzero;"/>
            </g>
            <g transform="matrix(0.553125,0,0,0.225926,480,326.163)">
                <path d="M79.971,251.234L81.462,249.436L90.985,297.512L89.472,299.146L79.971,251.234Z" style="fill:#f3c0a8;fill-rule:nonzero;"/>
            </g>
            <g transform="matrix(0.553125,0,0,0.225926,480,326.163)">
                <rect x="93.049" y="299.419" width="11.126" height="4.004" style="fill:#f3c0a8;fill-rule:nonzero;"/>
            </g>
            <g transform="matrix(0.553125,0,0,0.225926,480,326.163)">
                <path d="M107.751,299.146L106.238,297.512L115.762,249.436L117.253,251.234L107.751,299.146Z" style="fill:#f3c0a8;fill-rule:nonzero;"/>
            </g>
            <g transform="matrix(0.553125,0,0,0.225926,480,326.163)">
                <path d="M132.506,251.234L133.997,249.436L143.52,297.512L142.007,299.146L132.506,251.234Z" style="fill:#f3c0a8;fill-rule:nonzero;"/>
            </g>
            <g transform="matrix(0.553125,0,0,0.225926,480,326.163)">
                <rect x="145.584" y="299.419" width="11.126" height="4.004" style="fill:#f3c0a8;fill-rule:nonzero;"/>
            </g>
            <g transform="matrix(0.553125,0,0,0.225926,480,326.163)">
                <path d="M158.773,251.234L160.264,249.436L169.788,297.512L168.275,299.146L158.773,251.234Z" style="fill:#f3c0a8;fill-rule:nonzero;"/>
            </g>
            <g transform="matrix(0.553125,0,0,0.225926,480,326.163)">
                <path d="M185.041,251.234L186.532,249.436L196.055,297.512L194.542,299.146L185.041,251.234Z" style="fill:#f3c0a8;fill-rule:nonzero;"/>
            </g>
            <g transform="matrix(0.553125,0,0,0.225926,480,326.163)">
                <path d="M199.688,299.146L198.175,297.512L207.698,249.436L209.189,251.234L199.688,299.146Z" style="fill:#f3c0a8;fill-rule:nonzero;"/>
            </g>
            <g transform="matrix(0.553125,0,0,0.225926,480,326.163)">
                <path d="M211.308,251.234L212.799,249.436L222.323,297.512L220.81,299.146L211.308,251.234Z" style="fill:#f3c0a8;fill-rule:nonzero;"/>
            </g>
            <g transform="matrix(0.553125,0,0,0.225926,480,326.163)">
                <rect x="250.654" y="299.419" width="12.461" height="4.004" style="fill:#f3c0a8;fill-rule:nonzero;"/>
            </g>
            <g transform="matrix(0.553125,0,0,0.225926,480,326.163)">
                <rect x="262.453" y="299.419" width="12.461" height="4.004" style="fill:#f3c0a8;fill-rule:nonzero;"/>
            </g>
            <g transform="matrix(0.553125,0,0,0.225926,480,326.163)">
                <path d="M278.49,299.146L276.977,297.512L286.501,249.436L287.992,251.234L278.49,299.146Z" style="fill:#f3c0a8;fill-rule:nonzero;"/>
            </g>
            <g transform="matrix(0.553125,0,0,0.225926,480,326.163)">
                <path d="M303.245,251.234L304.736,249.436L314.259,297.512L312.746,299.146L303.245,251.234Z" style="fill:#f3c0a8;fill-rule:nonzero;"/>
            </g>
            <g transform="matrix(0.553125,0,0,0.225926,480,326.163)">
                <rect x="316.323" y="299.419" width="11.126" height="4.004" style="fill:#f3c0a8;fill-rule:nonzero;"/>
            </g>
            <g transform="matrix(0.553125,0,0,0.225926,480,326.163)">
                <path d="M329.512,251.234L331.003,249.436L340.527,297.512L339.014,299.146L329.512,251.234Z" style="fill:#f3c0a8;fill-rule:nonzero;"/>
            </g>
            <g transform="matrix(0.553125,0,0,0.225926,480,326.163)">
                <path d="M355.78,251.234L357.271,249.436L366.794,297.512L365.281,299.146L355.78,251.234Z" style="fill:#f3c0a8;fill-rule:nonzero;"/>
            </g>
            <g transform="matrix(0.553125,0,0,0.225926,480,326.163)">
                <rect x="368.858" y="299.419" width="11.126" height="4.004" style="fill:#f3c0a8;fill-rule:nonzero;"/>
            </g>
            <g transform="matrix(0.553125,0,0,0.225926,480,326.163)">
                <path d="M383.561,299.146L382.047,297.512L391.571,249.436L393.062,251.234L383.561,299.146Z" style="fill:#f3c0a8;fill-rule:nonzero;"/>
            </g>
            <g transform="matrix(0.553125,0,0,0.225926,480,326.163)">
                <path d="M395.181,251.234L396.672,249.436L406.196,297.512L404.682,299.146L395.181,251.234Z" style="fill:#f3c0a8;fill-rule:nonzero;"/>
            </g>
            <g transform="matrix(0.553125,0,0,0.225926,480,326.163)">
                <path d="M421.449,251.234L422.94,249.436L432.463,297.512L430.95,299.146L421.449,251.234Z" style="fill:#f3c0a8;fill-rule:nonzero;"/>
            </g>
            <g transform="matrix(0.553125,0,0,0.225926,480,326.163)">
                <rect x="434.527" y="299.419" width="12.461" height="4.004" style="fill:#f3c0a8;fill-rule:nonzero;"/>
            </g>
            <g transform="matrix(0.553125,0,0,0.225926,480,326.163)">
                <rect x="446.326" y="299.419" width="12.461" height="4.004" style="fill:#f3c0a8;fill-rule:nonzero;"/>
            </g>
            <g transform="matrix(0.553125,0,0,0.225926,480,326.163)">
                <path d="M462.363,299.146L460.85,297.512L470.374,249.436L471.864,251.234L462.363,299.146Z" style="fill:#f3c0a8;fill-rule:nonzero;"/>
            </g>
            <g transform="matrix(0.553125,0,0,0.225926,480,326.163)">
                <path d="M475.497,299.146L473.984,297.512L483.507,249.436L484.998,251.234L475.497,299.146Z" style="fill:#f3c0a8;fill-rule:nonzero;"/>
            </g>
            <g transform="matrix(0.553125,0,0,0.225926,480,326.163)">
                <path d="M487.118,251.234L488.608,249.436L498.132,297.512L496.619,299.146L487.118,251.234Z" style="fill:#f3c0a8;fill-rule:nonzero;"/>
            </g>
            <g transform="matrix(0.553125,0,0,0.225926,480,326.163)">
                <path d="M513.385,251.234L514.876,249.436L524.399,297.512L522.886,299.146L513.385,251.234Z" style="fill:#f3c0a8;fill-rule:nonzero;"/>
            </g>
            <g transform="matrix(0.553125,0,0,0.225926,480,326.163)">
                <path d="M528.366,293.535L528.366,256.028L530.302,256.028L530.302,289.313L537.288,289.313L537.066,293.535L528.366,293.535Z" style="fill:#f3c0a8;fill-rule:nonzero;"/>
            </g>
            <g transform="matrix(0.553125,0,0,0.225926,480,326.163)">
                <path d="M539.653,251.234L541.144,249.436L550.667,297.512L549.154,299.146L539.653,251.234Z" style="fill:#f3c0a8;fill-rule:nonzero;"/>
            </g>
            <g transform="matrix(0.553125,0,0,0.225926,480,326.163)">
                <path d="M565.92,251.234L567.411,249.436L576.935,297.512L575.421,299.146L565.92,251.234Z" style="fill:#f3c0a8;fill-rule:nonzero;"/>
            </g>
            <g transform="matrix(0.553125,0,0,0.225926,480,326.163)">
                <path d="M580.567,299.146L579.054,297.512L588.577,249.436L590.068,251.234L580.567,299.146Z" style="fill:#f3c0a8;fill-rule:nonzero;"/>
            </g>
            <g transform="matrix(0.553125,0,0,0.225926,480,326.163)">
                <path d="M592.188,251.234L593.679,249.436L603.202,297.512L601.689,299.146L592.188,251.234Z" style="fill:#f3c0a8;fill-rule:nonzero;"/>
            </g>
            <g transform="matrix(0.553125,0,0,0.225926,480,326.163)">
                <path d="M618.455,251.234L619.946,249.436L629.47,297.512L627.957,299.146L618.455,251.234Z" style="fill:#f3c0a8;fill-rule:nonzero;"/>
            </g>
            <g transform="matrix(0.553125,0,0,0.225926,480,326.163)">
                <path d="M633.102,299.146L631.589,297.512L641.113,249.436L642.603,251.234L633.102,299.146Z" style="fill:#f3c0a8;fill-rule:nonzero;"/>
            </g>
            <g transform="matrix(0.553125,0,0,0.225926,480,326.163)">
                <path d="M644.723,251.234L646.214,249.436L655.737,297.512L654.224,299.146L644.723,251.234Z" style="fill:#f3c0a8;fill-rule:nonzero;"/>
            </g>
            <g transform="matrix(0.553125,0,0,0.225926,480,326.163)">
                <path d="M670.99,251.234L672.481,249.436L682.005,297.512L680.492,299.146L670.99,251.234Z" style="fill:#f3c0a8;fill-rule:nonzero;"/>
            </g>
            <g transform="matrix(0.553125,0,0,0.225926,480,326.163)">
                <path d="M685.637,299.146L684.124,297.512L693.648,249.436L695.138,251.234L685.637,299.146Z" style="fill:#f3c0a8;fill-rule:nonzero;"/>
            </g>
            <g transform="matrix(0.553125,0,0,0.225926,480,326.163)">
                <path d="M697.258,251.234L698.749,249.436L708.272,297.512L706.759,299.146L697.258,251.234Z" style="fill:#f3c0a8;fill-rule:nonzero;"/>
            </g>
            <g transform="matrix(0.553125,0,0,0.225926,480,326.163)">
                <path d="M723.525,251.234L725.016,249.436L734.54,297.512L733.027,299.146L723.525,251.234Z" style="fill:#f3c0a8;fill-rule:nonzero;"/>
            </g>
            <g transform="matrix(0.553125,0,0,0.225926,480,326.163)">
                <path d="M738.172,299.146L736.659,297.512L746.183,249.436L747.674,251.234L738.172,299.146Z" style="fill:#f3c0a8;fill-rule:nonzero;"/>
            </g>
            <g transform="matrix(0.553125,0,0,0.225926,480,326.163)">
                <path d="M749.793,251.234L751.284,249.436L760.807,297.512L759.294,299.146L749.793,251.234Z" style="fill:#f3c0a8;fill-rule:nonzero;"/>
            </g>
            <g transform="matrix(0.553125,0,0,0.225926,480,326.163)">
                <rect x="789.139" y="299.419" width="12.461" height="4.004" style="fill:#f3c0a8;fill-rule:nonzero;"/>
            </g>
            <g transform="matrix(0.553125,0,0,0.225926,480,326.163)">
                <rect x="800.937" y="299.419" width="12.461" height="4.004" style="fill:#f3c0a8;fill-rule:nonzero;"/>
            </g>
            <g transform="matrix(0.553125,0,0,0.225926,480,326.163)">
                <path d="M816.975,299.146L815.462,297.512L824.985,249.436L826.476,251.234L816.975,299.146Z" style="fill:#f3c0a8;fill-rule:nonzero;"/>
            </g>
            <g transform="matrix(0.553125,0,0,0.225926,480,326.163)">
                <path d="M828.596,251.234L830.086,249.436L839.61,297.512L838.097,299.146L828.596,251.234Z" style="fill:#f3c0a8;fill-rule:nonzero;"/>
            </g>
            <g transform="matrix(0.553125,0,0,0.225926,480,326.163)">
                <path d="M854.863,251.234L856.354,249.436L865.877,297.512L864.364,299.146L854.863,251.234Z" style="fill:#f3c0a8;fill-rule:nonzero;"/>
            </g>
            <g transform="matrix(0.553125,0,0,0.225926,480,326.163)">
                <rect x="867.941" y="299.419" width="11.126" height="4.004" style="fill:#f3c0a8;fill-rule:nonzero;"/>
            </g>
            <g transform="matrix(0.553125,0,0,0.225926,480,326.163)">
                <path d="M881.131,251.234L882.621,249.436L892.145,297.512L890.632,299.146L881.131,251.234Z" style="fill:#f3c0a8;fill-rule:nonzero;"/>
            </g>
            <g transform="matrix(0.553125,0,0,0.225926,480,326.163)">
                <path d="M40.569,314.56L42.06,312.762L51.584,360.838L50.071,362.472L40.569,314.56Z" style="fill:#ea8a5e;fill-rule:nonzero;"/>
            </g>
            <g transform="matrix(0.553125,0,0,0.225926,480,326.163)">
                <path d="M74.269,322.977L69.774,317.91L70.775,314.015L74.881,320.443L74.269,322.977Z" style="fill:#ea8a5e;fill-rule:nonzero;"/>
            </g>
            <g transform="matrix(0.553125,0,0,0.225926,480,326.163)">
                <path d="M79.971,314.56L81.462,312.762L90.985,360.838L89.472,362.472L79.971,314.56Z" style="fill:#ea8a5e;fill-rule:nonzero;"/>
            </g>
            <g transform="matrix(0.553125,0,0,0.225926,480,326.163)">
                <rect x="93.049" y="362.745" width="12.461" height="4.004" style="fill:#ea8a5e;fill-rule:nonzero;"/>
            </g>
            <g transform="matrix(0.553125,0,0,0.225926,480,326.163)">
                <rect x="104.848" y="362.745" width="13.796" height="4.004" style="fill:#ea8a5e;fill-rule:nonzero;"/>
            </g>
            <g transform="matrix(0.553125,0,0,0.225926,480,326.163)">
                <rect x="117.981" y="362.745" width="12.461" height="4.004" style="fill:#ea8a5e;fill-rule:nonzero;"/>
            </g>
            <g transform="matrix(0.553125,0,0,0.225926,480,326.163)">
                <path d="M134.709,356.861L132.573,356.861L136.9,341.717L133.107,328.179L135.321,328.179L138.035,338.857L140.783,328.179L142.919,328.179L139.137,341.526L143.453,356.861L141.162,356.861L137.957,344.549L134.709,356.861Z" style="fill:#ea8a5e;fill-rule:nonzero;"/>
            </g>
            <g transform="matrix(0.553125,0,0,0.225926,480,326.163)">
                <rect x="145.584" y="362.745" width="12.461" height="4.004" style="fill:#ea8a5e;fill-rule:nonzero;"/>
            </g>
            <g transform="matrix(0.553125,0,0,0.225926,480,326.163)">
                <rect x="157.383" y="362.745" width="13.796" height="4.004" style="fill:#ea8a5e;fill-rule:nonzero;"/>
            </g>
            <g transform="matrix(0.553125,0,0,0.225926,480,326.163)">
                <rect x="170.516" y="362.745" width="12.461" height="4.004" style="fill:#ea8a5e;fill-rule:nonzero;"/>
            </g>
            <g transform="matrix(0.553125,0,0,0.225926,480,326.163)">
                <path d="M186.554,362.472L185.041,360.838L194.564,312.762L196.055,314.56L186.554,362.472Z" style="fill:#ea8a5e;fill-rule:nonzero;"/>
            </g>
            <g transform="matrix(0.553125,0,0,0.225926,480,326.163)">
                <path d="M198.175,314.56L199.666,312.762L209.189,360.838L207.676,362.472L198.175,314.56Z" style="fill:#ea8a5e;fill-rule:nonzero;"/>
            </g>
            <g transform="matrix(0.553125,0,0,0.225926,480,326.163)">
                <path d="M224.442,314.56L225.933,312.762L235.457,360.838L233.944,362.472L224.442,314.56Z" style="fill:#ea8a5e;fill-rule:nonzero;"/>
            </g>
            <g transform="matrix(0.553125,0,0,0.225926,480,326.163)">
                <rect x="237.52" y="362.745" width="12.461" height="4.004" style="fill:#ea8a5e;fill-rule:nonzero;"/>
            </g>
            <g transform="matrix(0.553125,0,0,0.225926,480,326.163)">
                <rect x="249.319" y="362.745" width="13.796" height="4.004" style="fill:#ea8a5e;fill-rule:nonzero;"/>
            </g>
            <g transform="matrix(0.553125,0,0,0.225926,480,326.163)">
                <rect x="262.453" y="362.745" width="13.796" height="4.004" style="fill:#ea8a5e;fill-rule:nonzero;"/>
            </g>
            <g transform="matrix(0.553125,0,0,0.225926,480,326.163)">
                <rect x="275.587" y="362.745" width="12.461" height="4.004" style="fill:#ea8a5e;fill-rule:nonzero;"/>
            </g>
            <g transform="matrix(0.553125,0,0,0.225926,480,326.163)">
                <path d="M290.111,314.56L291.602,312.762L301.125,360.838L299.612,362.472L290.111,314.56Z" style="fill:#ea8a5e;fill-rule:nonzero;"/>
            </g>
            <g transform="matrix(0.553125,0,0,0.225926,480,326.163)">
                <path d="M304.758,362.472L303.245,360.838L312.768,312.762L314.259,314.56L304.758,362.472Z" style="fill:#ea8a5e;fill-rule:nonzero;"/>
            </g>
            <g transform="matrix(0.553125,0,0,0.225926,480,326.163)">
                <path d="M316.379,314.56L317.869,312.762L327.393,360.838L325.88,362.472L316.379,314.56Z" style="fill:#ea8a5e;fill-rule:nonzero;"/>
            </g>
            <g transform="matrix(0.553125,0,0,0.225926,480,326.163)">
                <rect x="329.457" y="362.745" width="12.461" height="4.004" style="fill:#ea8a5e;fill-rule:nonzero;"/>
            </g>
            <g transform="matrix(0.553125,0,0,0.225926,480,326.163)">
                <rect x="341.255" y="362.745" width="13.796" height="4.004" style="fill:#ea8a5e;fill-rule:nonzero;"/>
            </g>
            <g transform="matrix(0.553125,0,0,0.225926,480,326.163)">
                <rect x="354.389" y="362.745" width="13.796" height="4.004" style="fill:#ea8a5e;fill-rule:nonzero;"/>
            </g>
            <g transform="matrix(0.553125,0,0,0.225926,480,326.163)">
                <rect x="367.523" y="362.745" width="12.461" height="4.004" style="fill:#ea8a5e;fill-rule:nonzero;"/>
            </g>
            <g transform="matrix(0.553125,0,0,0.225926,480,326.163)">
                <path d="M382.047,314.56L383.538,312.762L393.062,360.838L391.549,362.472L382.047,314.56Z" style="fill:#ea8a5e;fill-rule:nonzero;"/>
            </g>
            <g transform="matrix(0.553125,0,0,0.225926,480,326.163)">
                <path d="M408.315,314.56L409.806,312.762L419.329,360.838L417.816,362.472L408.315,314.56Z" style="fill:#ea8a5e;fill-rule:nonzero;"/>
            </g>
            <g transform="matrix(0.553125,0,0,0.225926,480,326.163)">
                <rect x="421.393" y="362.745" width="12.461" height="4.004" style="fill:#ea8a5e;fill-rule:nonzero;"/>
            </g>
            <g transform="matrix(0.553125,0,0,0.225926,480,326.163)">
                <rect x="433.192" y="362.745" width="13.796" height="4.004" style="fill:#ea8a5e;fill-rule:nonzero;"/>
            </g>
            <g transform="matrix(0.553125,0,0,0.225926,480,326.163)">
                <rect x="446.326" y="362.745" width="13.796" height="4.004" style="fill:#ea8a5e;fill-rule:nonzero;"/>
            </g>
            <g transform="matrix(0.553125,0,0,0.225926,480,326.163)">
                <rect x="459.459" y="362.745" width="12.461" height="4.004" style="fill:#ea8a5e;fill-rule:nonzero;"/>
            </g>
            <g transform="matrix(0.553125,0,0,0.225926,480,326.163)">
                <path d="M473.984,314.56L475.475,312.762L484.998,360.838L483.485,362.472L473.984,314.56Z" style="fill:#ea8a5e;fill-rule:nonzero;"/>
            </g>
            <g transform="matrix(0.553125,0,0,0.225926,480,326.163)">
                <path d="M500.251,314.56L501.742,312.762L511.266,360.838L509.753,362.472L500.251,314.56Z" style="fill:#ea8a5e;fill-rule:nonzero;"/>
            </g>
            <g transform="matrix(0.553125,0,0,0.225926,480,326.163)">
                <rect x="513.33" y="362.745" width="12.461" height="4.004" style="fill:#ea8a5e;fill-rule:nonzero;"/>
            </g>
            <g transform="matrix(0.553125,0,0,0.225926,480,326.163)">
                <rect x="525.128" y="362.745" width="13.796" height="4.004" style="fill:#ea8a5e;fill-rule:nonzero;"/>
            </g>
            <g transform="matrix(0.553125,0,0,0.225926,480,326.163)">
                <rect x="538.262" y="362.745" width="13.796" height="4.004" style="fill:#ea8a5e;fill-rule:nonzero;"/>
            </g>
            <g transform="matrix(0.553125,0,0,0.225926,480,326.163)">
                <rect x="551.396" y="362.745" width="12.461" height="4.004" style="fill:#ea8a5e;fill-rule:nonzero;"/>
            </g>
            <g transform="matrix(0.553125,0,0,0.225926,480,326.163)">
                <path d="M567.433,362.472L565.92,360.838L575.444,312.762L576.935,314.56L567.433,362.472Z" style="fill:#ea8a5e;fill-rule:nonzero;"/>
            </g>
            <g transform="matrix(0.553125,0,0,0.225926,480,326.163)">
                <path d="M579.054,314.56L580.545,312.762L590.068,360.838L588.555,362.472L579.054,314.56Z" style="fill:#ea8a5e;fill-rule:nonzero;"/>
            </g>
            <g transform="matrix(0.553125,0,0,0.225926,480,326.163)">
                <path d="M605.322,314.56L606.812,312.762L616.336,360.838L614.823,362.472L605.322,314.56Z" style="fill:#ea8a5e;fill-rule:nonzero;"/>
            </g>
            <g transform="matrix(0.553125,0,0,0.225926,480,326.163)">
                <rect x="618.4" y="362.745" width="11.126" height="4.004" style="fill:#ea8a5e;fill-rule:nonzero;"/>
            </g>
            <g transform="matrix(0.553125,0,0,0.225926,480,326.163)">
                <path d="M631.589,314.56L633.08,312.762L642.603,360.838L641.09,362.472L631.589,314.56Z" style="fill:#ea8a5e;fill-rule:nonzero;"/>
            </g>
            <g transform="matrix(0.553125,0,0,0.225926,480,326.163)">
                <path d="M657.857,314.56L659.347,312.762L668.871,360.838L667.358,362.472L657.857,314.56Z" style="fill:#ea8a5e;fill-rule:nonzero;"/>
            </g>
            <g transform="matrix(0.553125,0,0,0.225926,480,326.163)">
                <rect x="670.935" y="362.745" width="11.126" height="4.004" style="fill:#ea8a5e;fill-rule:nonzero;"/>
            </g>
            <g transform="matrix(0.553125,0,0,0.225926,480,326.163)">
                <path d="M684.124,314.56L685.615,312.762L695.138,360.838L693.625,362.472L684.124,314.56Z" style="fill:#ea8a5e;fill-rule:nonzero;"/>
            </g>
            <g transform="matrix(0.553125,0,0,0.225926,480,326.163)">
                <path d="M710.392,314.56L711.882,312.762L721.406,360.838L719.893,362.472L710.392,314.56Z" style="fill:#ea8a5e;fill-rule:nonzero;"/>
            </g>
            <g transform="matrix(0.553125,0,0,0.225926,480,326.163)">
                <rect x="723.47" y="362.745" width="11.126" height="4.004" style="fill:#ea8a5e;fill-rule:nonzero;"/>
            </g>
            <g transform="matrix(0.553125,0,0,0.225926,480,326.163)">
                <path d="M736.659,314.56L738.15,312.762L747.674,360.838L746.16,362.472L736.659,314.56Z" style="fill:#ea8a5e;fill-rule:nonzero;"/>
            </g>
            <g transform="matrix(0.553125,0,0,0.225926,480,326.163)">
                <path d="M762.927,314.56L764.418,312.762L773.941,360.838L772.428,362.472L762.927,314.56Z" style="fill:#ea8a5e;fill-rule:nonzero;"/>
            </g>
            <g transform="matrix(0.553125,0,0,0.225926,480,326.163)">
                <rect x="776.005" y="362.745" width="12.461" height="4.004" style="fill:#ea8a5e;fill-rule:nonzero;"/>
            </g>
            <g transform="matrix(0.553125,0,0,0.225926,480,326.163)">
                <rect x="787.804" y="362.745" width="13.796" height="4.004" style="fill:#ea8a5e;fill-rule:nonzero;"/>
            </g>
            <g transform="matrix(0.553125,0,0,0.225926,480,326.163)">
                <rect x="800.937" y="362.745" width="13.796" height="4.004" style="fill:#ea8a5e;fill-rule:nonzero;"/>
            </g>
            <g transform="matrix(0.553125,0,0,0.225926,480,326.163)">
                <rect x="814.071" y="362.745" width="12.461" height="4.004" style="fill:#ea8a5e;fill-rule:nonzero;"/>
            </g>
            <g transform="matrix(0.553125,0,0,0.225926,480,326.163)">
                <path d="M828.596,314.56L830.086,312.762L839.61,360.838L838.097,362.472L828.596,314.56Z" style="fill:#ea8a5e;fill-rule:nonzero;"/>
            </g>
            <g transform="matrix(0.553125,0,0,0.225926,480,326.163)">
                <path d="M841.729,314.56L843.22,312.762L852.744,360.838L851.231,362.472L841.729,314.56Z" style="fill:#ea8a5e;fill-rule:nonzero;"/>
            </g>
            <g transform="matrix(0.553125,0,0,0.225926,480,326.163)">
                <path d="M856.376,362.472L854.863,360.838L864.387,312.762L865.877,314.56L856.376,362.472Z" style="fill:#ea8a5e;fill-rule:nonzero;"/>
            </g>
            <g transform="matrix(0.553125,0,0,0.225926,480,326.163)">
                <path d="M867.997,314.56L869.488,312.762L879.011,360.838L877.498,362.472L867.997,314.56Z" style="fill:#ea8a5e;fill-rule:nonzero;"/>
            </g>
            <g transform="matrix(0.553125,0,0,0.225926,480,326.163)">
                <rect x="881.075" y="362.745" width="11.126" height="4.004" style="fill:#ea8a5e;fill-rule:nonzero;"/>
            </g>
            <g transform="matrix(0.553125,0,0,0.225926,480,326.163)">
                <path d="M894.264,314.56L895.755,312.762L905.279,360.838L903.766,362.472L894.264,314.56Z" style="fill:#ea8a5e;fill-rule:nonzero;"/>
            </g>
            <g transform="matrix(0.553125,0,0,0.225926,480,326.163)">
                <path d="M58.387,394.12L58.042,379.956L60.379,379.956L60.034,394.12L58.387,394.12Z" style="fill:#ea8a5e;fill-rule:nonzero;"/>
            </g>
            <g transform="matrix(0.553125,0,0,0.225926,480,326.163)">
                <path d="M66.837,377.886L68.328,376.088L77.851,424.164L76.338,425.798L66.837,377.886Z" style="fill:#ea8a5e;fill-rule:nonzero;"/>
            </g>
            <g transform="matrix(0.553125,0,0,0.225926,480,326.163)">
                <path d="M81.484,425.798L79.971,424.164L89.494,376.088L90.985,377.886L81.484,425.798Z" style="fill:#ea8a5e;fill-rule:nonzero;"/>
            </g>
            <g transform="matrix(0.553125,0,0,0.225926,480,326.163)">
                <rect x="93.049" y="426.071" width="12.461" height="4.004" style="fill:#ea8a5e;fill-rule:nonzero;"/>
            </g>
            <g transform="matrix(0.553125,0,0,0.225926,480,326.163)">
                <rect x="104.848" y="426.071" width="12.461" height="4.004" style="fill:#ea8a5e;fill-rule:nonzero;"/>
            </g>
            <g transform="matrix(0.553125,0,0,0.225926,480,326.163)">
                <path d="M120.885,425.798L119.372,424.164L128.896,376.088L130.386,377.886L120.885,425.798Z" style="fill:#ea8a5e;fill-rule:nonzero;"/>
            </g>
            <g transform="matrix(0.553125,0,0,0.225926,480,326.163)">
                <path d="M134.019,425.798L132.506,424.164L142.029,376.088L143.52,377.886L134.019,425.798Z" style="fill:#ea8a5e;fill-rule:nonzero;"/>
            </g>
            <g transform="matrix(0.553125,0,0,0.225926,480,326.163)">
                <rect x="145.584" y="426.071" width="12.461" height="4.004" style="fill:#ea8a5e;fill-rule:nonzero;"/>
            </g>
            <g transform="matrix(0.553125,0,0,0.225926,480,326.163)">
                <rect x="157.383" y="426.071" width="12.461" height="4.004" style="fill:#ea8a5e;fill-rule:nonzero;"/>
            </g>
            <g transform="matrix(0.553125,0,0,0.225926,480,326.163)">
                <path d="M173.42,425.798L171.907,424.164L181.431,376.088L182.922,377.886L173.42,425.798Z" style="fill:#ea8a5e;fill-rule:nonzero;"/>
            </g>
            <g transform="matrix(0.553125,0,0,0.225926,480,326.163)">
                <path d="M211.308,377.886L212.799,376.088L222.323,424.164L220.81,425.798L211.308,377.886Z" style="fill:#ea8a5e;fill-rule:nonzero;"/>
            </g>
            <g transform="matrix(0.553125,0,0,0.225926,480,326.163)">
                <path d="M225.955,425.798L224.442,424.164L233.966,376.088L235.457,377.886L225.955,425.798Z" style="fill:#ea8a5e;fill-rule:nonzero;"/>
            </g>
            <g transform="matrix(0.553125,0,0,0.225926,480,326.163)">
                <rect x="237.52" y="426.071" width="12.461" height="4.004" style="fill:#ea8a5e;fill-rule:nonzero;"/>
            </g>
            <g transform="matrix(0.553125,0,0,0.225926,480,326.163)">
                <rect x="249.319" y="426.071" width="13.796" height="4.004" style="fill:#ea8a5e;fill-rule:nonzero;"/>
            </g>
            <g transform="matrix(0.553125,0,0,0.225926,480,326.163)">
                <rect x="262.453" y="426.071" width="13.796" height="4.004" style="fill:#ea8a5e;fill-rule:nonzero;"/>
            </g>
            <g transform="matrix(0.553125,0,0,0.225926,480,326.163)">
                <rect x="275.587" y="426.071" width="12.461" height="4.004" style="fill:#ea8a5e;fill-rule:nonzero;"/>
            </g>
            <g transform="matrix(0.553125,0,0,0.225926,480,326.163)">
                <path d="M291.624,425.798L290.111,424.164L299.635,376.088L301.125,377.886L291.624,425.798Z" style="fill:#ea8a5e;fill-rule:nonzero;"/>
            </g>
            <g transform="matrix(0.553125,0,0,0.225926,480,326.163)">
                <path d="M303.245,377.886L304.736,376.088L314.259,424.164L312.746,425.798L303.245,377.886Z" style="fill:#ea8a5e;fill-rule:nonzero;"/>
            </g>
            <g transform="matrix(0.553125,0,0,0.225926,480,326.163)">
                <path d="M317.892,425.798L316.379,424.164L325.902,376.088L327.393,377.886L317.892,425.798Z" style="fill:#ea8a5e;fill-rule:nonzero;"/>
            </g>
            <g transform="matrix(0.553125,0,0,0.225926,480,326.163)">
                <rect x="329.457" y="426.071" width="12.461" height="4.004" style="fill:#ea8a5e;fill-rule:nonzero;"/>
            </g>
            <g transform="matrix(0.553125,0,0,0.225926,480,326.163)">
                <rect x="341.255" y="426.071" width="13.796" height="4.004" style="fill:#ea8a5e;fill-rule:nonzero;"/>
            </g>
            <g transform="matrix(0.553125,0,0,0.225926,480,326.163)">
                <rect x="354.389" y="426.071" width="13.796" height="4.004" style="fill:#ea8a5e;fill-rule:nonzero;"/>
            </g>
            <g transform="matrix(0.553125,0,0,0.225926,480,326.163)">
                <rect x="367.523" y="426.071" width="12.461" height="4.004" style="fill:#ea8a5e;fill-rule:nonzero;"/>
            </g>
            <g transform="matrix(0.553125,0,0,0.225926,480,326.163)">
                <path d="M383.561,425.798L382.047,424.164L391.571,376.088L393.062,377.886L383.561,425.798Z" style="fill:#ea8a5e;fill-rule:nonzero;"/>
            </g>
            <g transform="matrix(0.553125,0,0,0.225926,480,326.163)">
                <path d="M395.181,377.886L396.672,376.088L406.196,424.164L404.682,425.798L395.181,377.886Z" style="fill:#ea8a5e;fill-rule:nonzero;"/>
            </g>
            <g transform="matrix(0.553125,0,0,0.225926,480,326.163)">
                <path d="M409.828,425.798L408.315,424.164L417.839,376.088L419.329,377.886L409.828,425.798Z" style="fill:#ea8a5e;fill-rule:nonzero;"/>
            </g>
            <g transform="matrix(0.553125,0,0,0.225926,480,326.163)">
                <rect x="421.393" y="426.071" width="12.461" height="4.004" style="fill:#ea8a5e;fill-rule:nonzero;"/>
            </g>
            <g transform="matrix(0.553125,0,0,0.225926,480,326.163)">
                <rect x="433.192" y="426.071" width="13.796" height="4.004" style="fill:#ea8a5e;fill-rule:nonzero;"/>
            </g>
            <g transform="matrix(0.553125,0,0,0.225926,480,326.163)">
                <rect x="446.326" y="426.071" width="13.796" height="4.004" style="fill:#ea8a5e;fill-rule:nonzero;"/>
            </g>
            <g transform="matrix(0.553125,0,0,0.225926,480,326.163)">
                <rect x="459.459" y="426.071" width="12.461" height="4.004" style="fill:#ea8a5e;fill-rule:nonzero;"/>
            </g>
            <g transform="matrix(0.553125,0,0,0.225926,480,326.163)">
                <path d="M475.497,425.798L473.984,424.164L483.507,376.088L484.998,377.886L475.497,425.798Z" style="fill:#ea8a5e;fill-rule:nonzero;"/>
            </g>
            <g transform="matrix(0.553125,0,0,0.225926,480,326.163)">
                <path d="M487.118,377.886L488.608,376.088L498.132,424.164L496.619,425.798L487.118,377.886Z" style="fill:#ea8a5e;fill-rule:nonzero;"/>
            </g>
            <g transform="matrix(0.553125,0,0,0.225926,480,326.163)">
                <path d="M501.764,425.798L500.251,424.164L509.775,376.088L511.266,377.886L501.764,425.798Z" style="fill:#ea8a5e;fill-rule:nonzero;"/>
            </g>
            <g transform="matrix(0.553125,0,0,0.225926,480,326.163)">
                <rect x="513.33" y="426.071" width="12.461" height="4.004" style="fill:#ea8a5e;fill-rule:nonzero;"/>
            </g>
            <g transform="matrix(0.553125,0,0,0.225926,480,326.163)">
                <rect x="525.128" y="426.071" width="13.796" height="4.004" style="fill:#ea8a5e;fill-rule:nonzero;"/>
            </g>
            <g transform="matrix(0.553125,0,0,0.225926,480,326.163)">
                <rect x="538.262" y="426.071" width="12.461" height="4.004" style="fill:#ea8a5e;fill-rule:nonzero;"/>
            </g>
            <g transform="matrix(0.553125,0,0,0.225926,480,326.163)">
                <path d="M554.3,425.798L552.786,424.164L562.31,376.088L563.801,377.886L554.3,425.798Z" style="fill:#ea8a5e;fill-rule:nonzero;"/>
            </g>
            <g transform="matrix(0.553125,0,0,0.225926,480,326.163)">
                <path d="M592.188,377.886L593.679,376.088L603.202,424.164L601.689,425.798L592.188,377.886Z" style="fill:#ea8a5e;fill-rule:nonzero;"/>
            </g>
            <g transform="matrix(0.553125,0,0,0.225926,480,326.163)">
                <path d="M606.835,425.798L605.322,424.164L614.845,376.088L616.336,377.886L606.835,425.798Z" style="fill:#ea8a5e;fill-rule:nonzero;"/>
            </g>
            <g transform="matrix(0.553125,0,0,0.225926,480,326.163)">
                <rect x="618.4" y="426.071" width="11.126" height="4.004" style="fill:#ea8a5e;fill-rule:nonzero;"/>
            </g>
            <g transform="matrix(0.553125,0,0,0.225926,480,326.163)">
                <path d="M633.102,425.798L631.589,424.164L641.113,376.088L642.603,377.886L633.102,425.798Z" style="fill:#ea8a5e;fill-rule:nonzero;"/>
            </g>
            <g transform="matrix(0.553125,0,0,0.225926,480,326.163)">
                <path d="M644.723,377.886L646.214,376.088L655.737,424.164L654.224,425.798L644.723,377.886Z" style="fill:#ea8a5e;fill-rule:nonzero;"/>
            </g>
            <g transform="matrix(0.553125,0,0,0.225926,480,326.163)">
                <path d="M659.37,425.798L657.857,424.164L667.38,376.088L668.871,377.886L659.37,425.798Z" style="fill:#ea8a5e;fill-rule:nonzero;"/>
            </g>
            <g transform="matrix(0.553125,0,0,0.225926,480,326.163)">
                <rect x="670.935" y="426.071" width="11.126" height="4.004" style="fill:#ea8a5e;fill-rule:nonzero;"/>
            </g>
            <g transform="matrix(0.553125,0,0,0.225926,480,326.163)">
                <path d="M685.637,425.798L684.124,424.164L693.648,376.088L695.138,377.886L685.637,425.798Z" style="fill:#ea8a5e;fill-rule:nonzero;"/>
            </g>
            <g transform="matrix(0.553125,0,0,0.225926,480,326.163)">
                <path d="M697.258,377.886L698.749,376.088L708.272,424.164L706.759,425.798L697.258,377.886Z" style="fill:#ea8a5e;fill-rule:nonzero;"/>
            </g>
            <g transform="matrix(0.553125,0,0,0.225926,480,326.163)">
                <path d="M711.905,425.798L710.392,424.164L719.915,376.088L721.406,377.886L711.905,425.798Z" style="fill:#ea8a5e;fill-rule:nonzero;"/>
            </g>
            <g transform="matrix(0.553125,0,0,0.225926,480,326.163)">
                <rect x="723.47" y="426.071" width="11.126" height="4.004" style="fill:#ea8a5e;fill-rule:nonzero;"/>
            </g>
            <g transform="matrix(0.553125,0,0,0.225926,480,326.163)">
                <path d="M738.172,425.798L736.659,424.164L746.183,376.088L747.674,377.886L738.172,425.798Z" style="fill:#ea8a5e;fill-rule:nonzero;"/>
            </g>
            <g transform="matrix(0.553125,0,0,0.225926,480,326.163)">
                <path d="M749.793,377.886L751.284,376.088L760.807,424.164L759.294,425.798L749.793,377.886Z" style="fill:#ea8a5e;fill-rule:nonzero;"/>
            </g>
            <g transform="matrix(0.553125,0,0,0.225926,480,326.163)">
                <path d="M764.44,425.798L762.927,424.164L772.45,376.088L773.941,377.886L764.44,425.798Z" style="fill:#ea8a5e;fill-rule:nonzero;"/>
            </g>
            <g transform="matrix(0.553125,0,0,0.225926,480,326.163)">
                <rect x="776.005" y="426.071" width="12.461" height="4.004" style="fill:#ea8a5e;fill-rule:nonzero;"/>
            </g>
            <g transform="matrix(0.553125,0,0,0.225926,480,326.163)">
                <rect x="787.804" y="426.071" width="13.796" height="4.004" style="fill:#ea8a5e;fill-rule:nonzero;"/>
            </g>
            <g transform="matrix(0.553125,0,0,0.225926,480,326.163)">
                <rect x="800.937" y="426.071" width="13.796" height="4.004" style="fill:#ea8a5e;fill-rule:nonzero;"/>
            </g>
            <g transform="matrix(0.553125,0,0,0.225926,480,326.163)">
                <rect x="814.071" y="426.071" width="12.461" height="4.004" style="fill:#ea8a5e;fill-rule:nonzero;"/>
            </g>
            <g transform="matrix(0.553125,0,0,0.225926,480,326.163)">
                <path d="M830.109,425.798L828.596,424.164L838.119,376.088L839.61,377.886L830.109,425.798Z" style="fill:#ea8a5e;fill-rule:nonzero;"/>
            </g>
            <g transform="matrix(0.553125,0,0,0.225926,480,326.163)">
                <path d="M854.863,377.886L856.354,376.088L865.877,424.164L864.364,425.798L854.863,377.886Z" style="fill:#ea8a5e;fill-rule:nonzero;"/>
            </g>
            <g transform="matrix(0.553125,0,0,0.225926,480,326.163)">
                <path d="M869.51,425.798L867.997,424.164L877.52,376.088L879.011,377.886L869.51,425.798Z" style="fill:#ea8a5e;fill-rule:nonzero;"/>
            </g>
            <g transform="matrix(0.553125,0,0,0.225926,480,326.163)">
                <rect x="881.075" y="426.071" width="11.126" height="4.004" style="fill:#ea8a5e;fill-rule:nonzero;"/>
            </g>
            <g transform="matrix(0.553125,0,0,0.225926,480,326.163)">
                <path d="M895.777,425.798L894.264,424.164L903.788,376.088L905.279,377.886L895.777,425.798Z" style="fill:#ea8a5e;fill-rule:nonzero;"/>
            </g>
        </g>
    </g>
</svg>
