<svg viewBox="0 0 354 650" xmlns="http://www.w3.org/2000/svg" fill-rule="evenodd" clip-rule="evenodd" stroke-linejoin="round" stroke-miterlimit="1.414"><style>.interweaved:hover {fill: #bbb;}</style>
<path class="interweaved-s" d="M88.516 465.205c-.755.636-1.476 1.31-2.147 2.036-1.39 1.5-2.56 3.18-3.47 5-.55 1.11-1 2.26-1.35 3.44-.19.62-.35 1.24-.49 1.87v66.5c1.69 1.57 3.41 3.11 5.17 4.61 3.38 2.88 6.88 5.62 10.49 8.22 7.39 5.31 15.24 9.99 23.41 14 3.77 1.86 7.6 3.58 11.5 5.14 3.7 1.49 7.46 2.82 11.27 4 7.55 2.35 15.29 4.09 23.11 5.23 7.13 1.04 14.32 1.58 21.52 1.68 8.71.11 17.43-.44 26.04-1.72 5.53-.82 11.01-1.95 16.42-3.38V527.4c-.55.228-1.09.453-1.64.673-.5.2-1 .39-1.51.584-1.11.42-2.23.825-3.35 1.207-2.02.69-4.07 1.316-6.13 1.87-5.85 1.58-11.83 2.63-17.86 3.16-4.03.356-8.07.486-12.11.4-8.1-.162-16.19-1.21-24.04-3.22-3.26-.836-6.48-1.835-9.65-3-4.13-1.52-8.16-3.31-12.07-5.313-5.77-2.96-11.29-6.4-16.46-10.3-6.8-5.14-13-11.07-18.44-17.63-6.65-8.03-12.13-17.01-16.34-26.55-.6-1.36-1.17-2.73-1.72-4.11l-.03-.07-.17.14zm261.124-60.452v21.324c-.006 1.664-.025 3.328-.072 4.992-.09 3.13-.27 6.27-.538 9.4-.753 8.75-2.22 17.44-4.433 25.94-1.466 5.63-3.25 11.19-5.36 16.62-1.686 4.34-3.563 8.6-5.595 12.78-5.28 10.88-11.716 21.21-19.244 30.68-3.257 4.09-6.717 8.03-10.362 11.79-1.7 1.75-3.442 3.46-5.216 5.13-.562.52-1.124 1.05-1.692 1.57v-64.71c-.012-1.15-.034-2.29-.082-3.43-.082-1.94-.23-3.87-.44-5.8-.317-2.87-.778-5.72-1.388-8.54-.27-1.25-.573-2.49-.898-3.72-.124-.46-.25-.92-.38-1.38-.126-.44-.252-.88-.386-1.31l.02-.09c.31-1.26.6-2.53.86-3.8.585-2.89 1.035-5.8 1.37-8.72.467-4.07.714-8.15.82-12.24.034-1.38.048-2.76.056-4.15l.006-6.598c.002-5.26.002-10.52-.003-15.78h52.957zM85.55 341.138l-.098 53.89-.397.098c-2.787.71-5.553 1.505-8.3 2.364-1.91.597-3.815 1.222-5.693 1.92-1.465.543-2.912 1.14-4.342 1.77-8.01 3.535-15.524 8.185-22.192 13.865-3.31 2.82-6.412 5.884-9.265 9.165-1.494 1.718-2.913 3.497-4.27 5.323-.256.346-.51.693-.76 1.04l-.012-1.168v-1.25c-.01-3.787-.02-7.575-.02-11.364-.01-5.68-.01-11.37-.02-17.06-.01-19.53.01-39.06 0-58.59h55.38z" fill="url(#a)"/>
<path class="interweaved-a" d="M149.17 341.138v51.528H97.644v-51.528h51.528zm79.88-15.904c1.506-.935 2.983-1.91 4.43-2.93 5.024-3.547 9.688-7.588 14.05-11.918 1.594-1.584 3.15-3.208 4.666-4.867 1.247-1.37 2.475-2.75 3.66-4.17 1.52-1.82 2.978-3.68 4.372-5.6 3.022-4.15 5.745-8.5 8.193-13.01 1.1-2.02 2.14-4.07 3.14-6.15.29-.61.57-1.21.85-1.82.23-.5.46-1 .68-1.5l16.13-.06c.12-.01.25-.01.37-.02.19-.02.38-.06.57-.09.32-.05.63-.09.94-.15.39-.09.78-.2 1.15-.35 1.63-.67 3.02-1.91 3.88-3.44.21-.37.39-.75.53-1.15.11-.296.19-.6.25-.91.04-.177.04-.177.07-.355.06-.38.11-.77.16-1.15l.02-.368-.16-67v-.4c-.01-.945-.03-1.887-.06-2.828-.08-1.993-.24-3.983-.49-5.963-.61-5.016-1.75-9.967-3.4-14.746-.922-2.684-2.01-5.314-3.24-7.88-2.54-5.325-5.69-10.36-9.44-14.93-3.44-4.203-7.37-8.01-11.69-11.32-4.19-3.22-8.74-5.96-13.52-8.21-4.145-1.95-8.46-3.537-12.895-4.69-3.84-1-7.77-1.68-11.726-2.03-1.79-.16-3.58-.25-5.38-.292-.676-.01-1.35-.01-2.02-.01-.898.01-1.79.03-2.69.067-1.67.07-3.347.196-5.01.38-4.607.5-9.16 1.443-13.58 2.82-3.28 1.015-6.48 2.27-9.58 3.73-6.08 2.85-11.78 6.51-16.86 10.91-4.04 3.496-7.677 7.45-10.827 11.76-2.36 3.23-4.445 6.66-6.25 10.23-1.23 2.43-2.34 4.925-3.285 7.48-1.69 4.57-2.84 9.32-3.503 14.14-.45 3.2-.68 6.42-.75 9.65-.02.565-.02 1.13-.03 1.694-.01 5.33-.02 10.665-.02 15.997-.01 14.65.01 29.3.01 43.957H97.71l-.065-59.49c.007-1.79.034-3.58.104-5.37.12-3.15.35-6.3.7-9.44.9-8.1 2.59-16.11 5.09-23.87 1.81-5.635 4.06-11.127 6.65-16.45 2.81-5.76 6.03-11.32 9.67-16.603 4.35-6.32 9.29-12.24 14.72-17.65 4.99-4.97 10.39-9.52 16.15-13.58 5.73-4.047 11.81-7.6 18.12-10.65 5.56-2.7 11.31-5.01 17.22-6.85 5.97-1.86 12.1-3.24 18.29-4.152 5.58-.82 11.21-1.265 16.85-1.36 3.11-.056 6.23-.008 9.34.15 6.29.314 12.55 1.08 18.73 2.33 6.94 1.404 13.76 3.42 20.35 6.03 3.26 1.29 6.46 2.72 9.6 4.27 4.69 2.305 9.24 4.89 13.62 7.75 5.61 3.67 10.93 7.785 15.87 12.31 6.21 5.685 11.85 11.98 16.8 18.79 4.93 6.785 9.16 14.07 12.68 21.68 1.836 3.96 3.475 8.015 4.88 12.15 1.8 5.294 3.224 10.72 4.27 16.21.96 5.06 1.605 10.176 1.945 15.31.18 2.723.264 5.45.29 8.174l.026 6.21c.08 20.742.107 41.484.108 62.23 0 10.37-.01 20.743-.02 31.12-.02 20.744-.054 41.492-.08 62.24-.01 11.13-.02 22.25-.023 33.38h-52.5v-59.48l-.02-.39-.055-.388c-.034-.17-.27-1.53-.44-2.028-.12-.35-.256-.62-.46-.93-.08-.13-.84-1.32-1.175-1.704-.25-.28-.48-.475-.78-.685-.13-.09-1.28-.9-1.74-1.126-.42-.21-.54-.22-.98-.34l-1.52-.3c-.39-.056-.39-.056-.78-.075h-60.12z" fill="url(#b)"/>
<path class="interweaved-d" d="M102.34 448.756c1.335.038 2.666.137 3.99.326 2.458.353 4.875.994 7.178 1.927 2.064.83 4.032 1.9 5.87 3.15 1.78 1.22 3.438 2.62 4.965 4.14 1.527 1.52 2.925 3.18 4.146 4.96 1.25 1.83 2.32 3.8 3.15 5.87.98 2.42 1.64 4.97 1.98 7.57.19 1.46.27 2.92.28 4.4v23.91c4.37 3.18 9.02 5.98 13.85 8.42 2.38 1.2 4.81 2.31 7.28 3.32 2.3.93 4.65 1.77 7.02 2.51 3.27 1.02 6.61 1.84 9.98 2.47 1.69.31 3.4.58 5.11.81V478.3c.01-.153.01-.307.03-.46.03-.37.09-.74.14-1.107.1-.75.23-1.49.39-2.22.52-2.52 1.34-4.98 2.45-7.31 1.64-3.45 3.92-6.57 6.64-9.25 2.73-2.69 5.89-4.93 9.38-6.5 2-.9 4.1-1.58 6.25-2.03 2.08-.44 4.2-.667 6.32-.71 2.24-.046 4.48.11 6.69.504 2.502.446 4.95 1.2 7.27 2.25 3.364 1.527 6.42 3.673 9.09 6.22 2.535 2.425 4.73 5.21 6.41 8.294 1.32 2.42 2.32 5.01 2.99 7.68.175.71.33 1.42.463 2.14.05.24.09.48.13.73.02.11.04.23.05.34.027.21.037.42.05.63V650h43.26c0-56.586.177-113.172 0-169.757-.01-1.29-.043-2.578-.12-3.865-.13-2.366-.37-4.725-.73-7.067-.82-5.35-2.26-10.61-4.295-15.63-.87-2.16-1.854-4.27-2.92-6.35-2.89-5.63-6.453-10.92-10.643-15.67-3.854-4.37-8.22-8.29-12.97-11.66-3.33-2.36-6.854-4.46-10.51-6.28-2.216-1.1-4.48-2.11-6.79-3-2.3-.88-4.65-1.65-7.03-2.29-5.92-1.59-12.04-2.41-18.17-2.52-2.63-.04-5.26.03-7.887.24-6.632.54-13.19 1.95-19.435 4.26-1.93.72-3.83 1.52-5.696 2.38-4.2 1.96-8.23 4.28-12.01 6.96-2.72 1.93-5.306 4.04-7.76 6.3l-.47.37c-.46.27-.568.36-1.08.52-1.158.35-2.44.14-3.43-.55-.31-.22-.51-.42-.78-.68-.274-.26-.344-.32-.62-.58-.314-.29-.63-.57-.945-.86-2.34-2.07-4.8-3.99-7.39-5.74-4.59-3.09-9.54-5.63-14.7-7.62-6.54-2.52-13.43-4.09-20.41-4.69-2.616-.23-5.24-.32-7.86-.29-6.6.08-13.197.97-19.55 2.78-2.226.63-4.418 1.37-6.57 2.22-2.16.85-4.28 1.8-6.357 2.84-3.657 1.82-7.178 3.914-10.51 6.28-4.02 2.85-7.767 6.1-11.16 9.676-4.764 5.028-8.8 10.718-12.03 16.84-1.3 2.46-2.49 4.99-3.51 7.58-1.97 5.02-3.27 10.29-3.983 15.63-.49 3.65-.69 7.33-.7 11.014l.1 169.22h42.91V476.73c.01-.13.01-.26.02-.387.04-.365.13-.727.2-1.085.13-.594.27-1.186.42-1.774.55-2.073 1.28-4.1 2.2-6.036.908-1.91 2-3.734 3.256-5.435 1.27-1.718 2.706-3.31 4.27-4.76 1.33-1.23 2.75-2.36 4.26-3.357 1.886-1.245 3.905-2.283 6.016-3.083 2.35-.892 4.81-1.485 7.31-1.796 1.34-.168 2.7-.248 4.06-.268.39-.01.79 0 1.19 0zM134.113 650h43.058v-51.595c-.45-.03-.9-.065-1.35-.1-.57-.044-1.13-.09-1.7-.14-2.26-.202-4.51-.438-6.76-.724-4.73-.6-9.44-1.4-14.1-2.41-4.35-.94-8.67-2.06-12.93-3.35-2.13-.64-4.24-1.34-6.34-2.07l-.04-.01.19 60.41z" fill="url(#c)"/>
<path class="interweaved-m" d="M176.472 269.73c.218-.018.435-.03.65-.054.104-.012.807-.137.9-.154.758-.14 1.513-.3 2.262-.48 2.057-.5 4.074-1.16 6.026-1.977 2.735-1.147 5.337-2.603 7.755-4.318 2.18-1.545 4.21-3.298 6.076-5.207 1.58-1.61 3.05-3.33 4.36-5.163 1.79-2.507 3.28-5.225 4.41-8.092 1.24-3.145 2.03-6.457 2.39-9.816.26-2.44.3-4.91.18-7.36l-.08-1.3c-.16-1.8-.41-3.59-.81-5.35-.68-3.06-1.76-6.03-3.21-8.8-1.05-2.01-2.29-3.9-3.7-5.68-.91-1.16-1.9-2.25-2.93-3.3-2.19-2.23-4.63-4.22-7.26-5.92-2.5-1.62-5.18-2.97-7.97-4.03-1.49-.57-3.01-1.06-4.55-1.46-.57-.15-1.14-.3-1.71-.43-.13-.03-.71-.16-.85-.19-.13-.03-.26-.05-.39-.07l-.4-.03-14.49-.13.02-.2c.2-1.83.46-3.66.81-5.47.52-2.72 1.24-5.4 2.18-8.004.86-2.36 1.89-4.66 3.04-6.9 1.69-3.29 3.67-6.44 5.93-9.37 2.67-3.48 5.73-6.65 9.107-9.45 3.8-3.16 8-5.82 12.44-7.97 2.17-1.05 4.39-1.987 6.66-2.78 1.573-.557 3.17-1.04 4.78-1.46l.07-.02.253.09c2.345.892 4.655 1.873 6.92 2.962 4.07 1.96 7.98 4.23 11.743 6.72 4.22 2.8 8.258 5.88 12.1 9.18 2.183 1.87 4.303 3.82 6.355 5.84 2.27 2.23 4.45 4.55 6.51 6.965 3.96 4.635 7.51 9.654 10.27 15.1.77 1.516 1.48 3.066 2.11 4.646 1.14 2.836 2.068 5.757 2.86 8.707 1.2 4.47 2.09 9.024 2.73 13.607.41 2.934.716 5.884.908 8.84.18 2.796.26 5.6.21 8.4-.075 4.015-.424 8.026-1.02 12-.91 6.077-2.39 12.07-4.41 17.88-1.122 3.225-2.43 6.385-3.843 9.495-3.14 6.9-6.887 13.54-11.37 19.66-1.19 1.62-2.43 3.2-3.72 4.74-.83.99-1.68 1.96-2.55 2.92-1.01 1.124-2.046 2.235-3.1 3.33-4.936 5.122-10.31 9.88-16.24 13.825-1.88 1.257-3.826 2.42-5.82 3.48-1.94 1.03-3.93 1.947-5.95 2.81-2.836 1.21-5.72 2.3-8.65 3.27-4.18 1.394-8.44 2.56-12.75 3.504-5.4 1.18-10.874 2-16.39 2.377H30.07V269.7h146.402zM248.79 0v56.88H98.245c-.216.017-.432.028-.647.053-.148.016-.292.047-.438.072-.452.077-.904.16-1.354.25-.743.15-1.483.317-2.217.503-3.45.873-6.78 2.17-9.88 3.9-2.96 1.647-5.7 3.68-8.16 6.014-1.48 1.408-2.85 2.932-4.16 4.493-1.69 1.996-3.27 4.087-4.56 6.36-1.09 1.902-1.95 3.924-2.54 6.032-.52 1.845-.83 3.742-.98 5.65-.1 1.217-.12 2.434-.12 3.654 0 2.39.19 4.78.59 7.13.54 3.14 1.46 6.2 2.78 9.1 1.08 2.37 2.41 4.62 3.96 6.71 1.05 1.42 2.19 2.76 3.41 4.03 1.97 2.06 4.12 3.94 6.45 5.58 2.4 1.7 4.98 3.13 7.69 4.28 1.69.72 3.42 1.32 5.19 1.81.55.16 1.1.3 1.66.43.11.03.69.17.82.19.14.03.28.05.43.07l.43.03h5.27l-.16.29c-2.4 4.53-4.58 9.18-6.49 13.94-1.37 3.42-2.59 6.89-3.67 10.41-1.85 6.06-3.26 12.25-4.23 18.52-.53 3.44-.92 6.9-1.206 10.38l-.12 1.62c-.03.46-.06.92-.085 1.38l-.255-.033c-1.923-.28-3.84-.607-5.75-1-3.74-.78-7.432-1.8-11.04-3.076-2.09-.74-4.15-1.56-6.17-2.46-2.593-1.15-5.14-2.43-7.63-3.793-5.474-3-10.696-6.46-15.572-10.36-2.82-2.25-5.514-4.653-8.096-7.173-.42-.412-.837-.83-1.25-1.25-.183-.464-.194-.46-.443-.895l-.36-.46c-.86-.946-1.71-1.9-2.54-2.87-1.644-1.94-3.22-3.94-4.71-6-3.66-5.068-6.84-10.48-9.5-16.136-1.124-2.38-2.167-4.8-3.1-7.264-.93-2.46-1.756-4.96-2.466-7.48-2.07-7.38-3.165-15-3.385-22.65-.165-5.665.11-11.357 1.09-16.94.49-2.795 1.154-5.555 1.964-8.27.96-3.23 2.123-6.39 3.39-9.51.78-1.92 1.61-3.83 2.497-5.7 1.5-3.18 3.16-6.286 4.98-9.29 1.885-3.12 3.94-6.14 6.16-9.03 1.11-1.44 2.26-2.85 3.44-4.23.356-.41.715-.825 1.08-1.23.32-.36.4-.46.73-.816.26-.29.52-.543.74-.87.11-.166.19-.344.29-.514l.15-.385c2.81-2.84 5.764-5.537 8.873-8.05 5.01-4.05 10.39-7.64 16.04-10.73 2.87-1.57 5.81-3.03 8.81-4.31 3-1.28 6.07-2.38 9.19-3.3C78.49 2.06 84.02 1.01 89.6.465 92.83.15 96.075.01 99.323 0H248.79z" fill="url(#d)"/>
<defs>
<linearGradient id="a" x2="1" gradientUnits="userSpaceOnUse" gradientTransform="rotate(90 87.05 89.638) scale(647.414)"><stop offset="0%" stop-color="#6b90ff"/><stop offset="100%" stop-color="#d3f"/></linearGradient>
<linearGradient id="b" x2="1" gradientUnits="userSpaceOnUse" gradientTransform="rotate(90 87.05 89.638) scale(647.414)"><stop offset="0%" stop-color="#6b90ff"/><stop offset="100%" stop-color="#d3f"/></linearGradient>
<linearGradient id="c" x2="1" gradientUnits="userSpaceOnUse" gradientTransform="rotate(90 87.05 89.638) scale(647.414)"><stop offset="0%" stop-color="#6b90ff"/><stop offset="100%" stop-color="#d3f"/></linearGradient>
<linearGradient id="d" x2="1" gradientUnits="userSpaceOnUse" gradientTransform="rotate(90 87.05 89.638) scale(647.414)"><stop offset="0%" stop-color="#6b90ff"/><stop offset="100%" stop-color="#d3f"/></linearGradient>
</defs>
</svg>
